<?xml version="1.0" encoding="utf-8"?>
<!-- Generator: Adobe Illustrator 25.0.1, SVG Export Plug-In . SVG Version: 6.00 Build 0)  -->
<svg version="1.1" id="Capa_1" xmlns="http://www.w3.org/2000/svg" xmlns:xlink="http://www.w3.org/1999/xlink" x="0px" y="0px"
	 viewBox="0 0 1218 630" style="enable-background:new 0 0 1218 630;" xml:space="preserve">
<style type="text/css">
	.st0{opacity:7.000000e-02;fill:#3F2517;}
	.st1{fill:#7EA57E;}
	.st2{fill:#5C905C;}
	.st3{fill:#4C7C4C;}
	.st4{fill:#F2C383;}
	.st5{fill:#FFD797;}
	.st6{opacity:7.000000e-02;}
	.st7{fill:#3F2517;}
	.st8{fill:#FFD522;}
	.st9{fill:#FFE471;}
</style>
<g>
	<path class="st0" d="M5.6,25.8c0,0-4.1,22.8,7.6,37.9C24.8,78.7,48,80.3,48,80.3s4.1-22.8-7.6-37.8C28.7,27.4,5.6,25.8,5.6,25.8z"
		/>
	<g>
		<path class="st1" d="M8.3,53.6c-11.7-15-7.6-37.9-7.6-37.9l42.4,54.5C43.1,70.2,20,68.7,8.3,53.6z"/>
		<path class="st2" d="M43.1,70.2L0.7,15.8c0,0,23.1,1.6,34.8,16.7C47.2,47.5,43.1,70.2,43.1,70.2z"/>
	</g>
</g>
<g>
	<path class="st0" d="M1183.1,597.2c-13.5,11.4-14.1,33-14.1,33s21.3,3,34.9-8.5c13.5-11.4,14.1-33,14.1-33
		S1196.6,585.7,1183.1,597.2z"/>
	<g>
		<path class="st1" d="M1200.7,606.4c-13.5,11.4-34.9,8.5-34.9,8.5l49-41.4C1214.8,573.4,1214.2,594.9,1200.7,606.4z"/>
		<path class="st2" d="M1214.8,573.4l-49,41.4c0,0,0.6-21.5,14.1-33C1193.5,570.4,1214.8,573.4,1214.8,573.4z"/>
	</g>
</g>
<g>
	<path class="st0" d="M54.2,513.4c-15.5,6.7-21,28.6-12.2,49c0,0,0,0.1,0,0.1c1.4,3.1,1.9,6.6,1.5,10c-0.7,7,0.5,14.3,3.9,21.1
		c8.5,17,28.8,25,46.7,18.6c20.8-7.5,30.7-30.9,22.1-50.9c-2.7-6.2-6.8-11.3-11.9-15.2c-2.7-2-4.8-4.7-6.1-7.8
		c0-0.1-0.1-0.1-0.1-0.2C89.4,517.8,69.7,506.7,54.2,513.4z"/>
	<g>
		<path class="st3" d="M93.4,543.7c-2.7-2-4.8-4.7-6.1-7.8c0-0.1-0.1-0.1-0.1-0.2c-8.8-20.3-28.4-31.4-43.9-24.7
			c-15.5,6.7-21,28.6-12.2,49c0,0,0,0.1,0,0.1c1.4,3.1,1.9,6.6,1.5,10c-0.7,7,0.5,14.3,3.9,21.1c8.5,17,28.8,25,46.7,18.6
			c20.8-7.5,30.7-30.9,22.1-50.9C102.5,552.6,98.4,547.5,93.4,543.7z"/>
		<path class="st1" d="M88.9,546.2c-2.3-1.7-4.1-4-5.2-6.6c0-0.1,0-0.1-0.1-0.2c-7.4-17.2-24.1-26.5-37.2-20.9
			c-13.1,5.7-17.7,24.2-10.3,41.4c0,0,0,0.1,0,0.1c1.2,2.7,1.6,5.6,1.3,8.5c-0.6,5.9,0.4,12.1,3.3,17.8
			c7.2,14.4,24.4,21.2,39.5,15.7c17.6-6.4,26-26.1,18.7-43C96.6,553.8,93.1,549.4,88.9,546.2z"/>
		<path class="st4" d="M75.7,586.5c-5.4,2.3-11.6,0.7-16.2-3.6c-2-1.9-3.7-4.2-4.9-7c-4-9.2-0.9-19.3,6.8-22.7
			c3.9-1.7,8.3-1.3,12.2,0.7c3.7,1.9,7,5.4,8.9,9.9C86.5,573,83.4,583.1,75.7,586.5z"/>
		<path class="st5" d="M71.7,583.6c-3.9,1.7-8.3,1.3-12.2-0.7c-2-1.9-3.7-4.2-4.9-7c-4-9.2-0.9-19.3,6.8-22.7
			c3.9-1.7,8.3-1.3,12.2,0.7c2,1.9,3.7,4.2,4.9,7C82.4,570.1,79.4,580.3,71.7,583.6z"/>
	</g>
</g>
<g class="st6">
	<path class="st7" d="M1098.9,36.3c-7.3-2.2-13.2-0.8-15.9,0.2l11.7-10.3c0.2-0.2,0.3-0.6,0.1-0.9c-0.2-0.2-0.6-0.3-0.9-0.1
		l-11.4,10.1c0.8-1.7,1.8-4.7,1.4-8.6c-0.7-6.3-5-12.4-5-12.4s-3.1,4-2.3,10.3c0.6,5.2,3.7,10.3,4.7,11.9l-0.4,0.3
		c-0.2,0.2-0.3,0.6-0.1,0.9c0.1,0.1,0.3,0.2,0.5,0.2c0.1,0,0.3-0.1,0.4-0.2l0.2-0.2c1.9,1.8,9.9,8.7,18.7,11.4
		c10.2,3,17.6-0.9,17.6-0.9S1109,39.3,1098.9,36.3z"/>
	<path class="st7" d="M1080.2,37.6c-2.8-3.1-7.6-3.3-10.7-0.5c-0.3,0.3-0.6,0.6-0.9,0.9c-10.7-5.8-26.2-3.2-37.9,7.4
		c-3.6,3.2-6.4,6.9-8.5,10.7c-4.8,8.7-5.8,18.4-2.5,26.2c-0.4,0.2-0.7,0.5-1,0.8c-3.1,2.8-3.3,7.6-0.5,10.7
		c2.8,3.1,7.6,3.3,10.7,0.5c0.3-0.3,0.6-0.6,0.9-1c10.8,5.8,26.2,3.2,37.9-7.4c6.2-5.6,10.3-12.5,12-19.5c1.5-6.1,1.3-12.2-0.9-17.4
		c0.3-0.2,0.7-0.5,1-0.8C1082.7,45.4,1083,40.7,1080.2,37.6z"/>
</g>
<g>
	<g>
		<path class="st1" d="M1080.1,12.3c0.7,6.3-2.3,10.3-2.3,10.3s-4.3-6.2-5-12.4c-0.7-6.3,2.3-10.3,2.3-10.3S1079.4,6,1080.1,12.3z"
			/>
	</g>
	<g>
		<path class="st1" d="M1095.3,21.8c-10.1-3-17.6,0.9-17.6,0.9s9,8.8,19.1,11.8c10.1,3,17.6-0.9,17.6-0.9S1105.4,24.8,1095.3,21.8z"
			/>
	</g>
	<g>
		<path class="st2" d="M1077.5,23.4c-0.2,0-0.3-0.1-0.5-0.2c-0.2-0.2-0.2-0.6,0.1-0.9l13.1-11.6c0.2-0.2,0.6-0.2,0.9,0.1
			c0.2,0.2,0.2,0.6-0.1,0.9l-13.1,11.6C1077.7,23.4,1077.6,23.4,1077.5,23.4z"/>
	</g>
	<g>
		<path class="st8" d="M1063.9,71.4c-11.7,10.5-27.1,13.2-37.9,7.4c-0.3,0.3-0.5,0.7-0.9,1c-3.1,2.8-7.9,2.6-10.7-0.5
			c-2.8-3.1-2.6-7.9,0.5-10.7c0.3-0.3,0.7-0.6,1-0.8c-3.3-7.8-2.3-17.5,2.5-26.2c2.1-3.8,5-7.5,8.5-10.7
			c11.7-10.5,27.1-13.2,37.9-7.4c0.3-0.3,0.5-0.6,0.9-0.9c3.1-2.8,7.9-2.6,10.7,0.5c2.8,3.1,2.6,7.9-0.5,10.7
			c-0.3,0.3-0.7,0.5-1,0.8c2.2,5.3,2.5,11.3,0.9,17.4C1074.2,58.9,1070.2,65.8,1063.9,71.4z"/>
	</g>
	<g>
		<path class="st9" d="M1076,51.9c-2.1,3.8-5,7.5-8.5,10.7c-11.7,10.5-27.1,13.2-37.9,7.4c-0.3,0.3-0.5,0.7-0.9,1
			c-3.1,2.8-7.9,2.6-10.7-0.5c-2.8-3.1-2.6-7.9,0.5-10.7c0.3-0.3,0.7-0.6,1-0.8c-2.2-5.3-2.5-11.3-0.9-17.4c2.1-3.8,5-7.5,8.5-10.7
			c11.7-10.5,27.1-13.2,37.9-7.4c0.3-0.3,0.5-0.6,0.9-0.9c3.1-2.8,7.9-2.6,10.7,0.5c2.8,3.1,2.6,7.9-0.5,10.7
			c-0.3,0.3-0.7,0.5-1,0.8C1077.2,39.8,1077.5,45.9,1076,51.9z"/>
	</g>
</g>
</svg>
