<?xml version="1.0" encoding="utf-8"?>
<!-- Generator: Adobe Illustrator 25.0.1, SVG Export Plug-In . SVG Version: 6.00 Build 0)  -->
<svg version="1.1" xmlns="http://www.w3.org/2000/svg" xmlns:xlink="http://www.w3.org/1999/xlink" x="0px" y="0px"
	 viewBox="0 0 454.1 503.3" style="enable-background:new 0 0 454.1 503.3;" xml:space="preserve">
<style type="text/css">
	.st0{fill:#FCF8F0;}
	.st1{fill:#001A2D;}
	.st2{fill:#E8935D;}
	.st3{fill:#E87555;}
	.st4{fill:#FF5710;}
	.st5{fill:#84312E;}
	.st6{fill:#F0ECE5;}
	.st7{fill:#D9782C;}
	.st8{fill:#EBE6DD;}
	.st9{fill:#FFFFFF;}
	.st10{opacity:0.3;fill:#C0AF93;}
	.st11{fill:#2D2E41;}
	.st12{fill:#DF8C4B;}
	.st13{fill:#DAD0BF;}
	.st14{fill:#1ABB9C;}
	.st15{fill:#1D2239;}
	.st16{display:none;}
</style>
<g id="OBJECTS">
	<g>
		<g>
			<path class="st0" d="M293.6,192c-5,4.1-22.1,58.4-22.3,62.9c-0.2,4.5,6.1,21.8,12.3,21.4s4.9-23.2,4.9-23.2l10.8-28.9L293.6,192z
				"/>
			<g>
				<path class="st0" d="M325.4,182.8c8.3,0.5,25.8,7.9,29,11.4l-3.6,29.2c0,0,1.7,31.9,2.7,45.8c0.3,4.7,0.5,7.3,0.5,7.3h-51.5
					c0,0-5-0.7-5-7.8c0-15.1-1.5-57.1-1.5-57.1l-2.4-19.6C293.6,192,305.9,181.7,325.4,182.8z"/>
				<g>
					<path class="st1" d="M308.9,140.6c0,0-1.3,5.1-3.2,15.5c-1.2,6.5,7.2-15.5,7.2-15.5L308.9,140.6z"/>
					<g>
						<path class="st2" d="M307,157c0,0-6.4-5.3-8.4,1c-2.2,7,7.9,6,7.9,6L307,157z"/>
					</g>
					<g>
						<path class="st2" d="M327.5,185.5l5.6-18.9c0,0,7.3,3.4,8.5-2.7c1.1-5.4-4.8-6.5-8-4.3c0,0,7.3-18.6-9.1-22
							c-16.4-3.4-19.2,19.4-19.8,24.9c-1.2,9.7,5.2,15.1,10.2,16.2l-1.1,5.9c0,0-1,5.2,3.9,5.9C324.3,191.5,327.5,185.5,327.5,185.5
							z"/>
					</g>
					<path class="st1" d="M308.2,148c0,0-2.8,11.7-2.3,17.2c0,0,10.3-5.1,15.8-1.4c1.3,0.9,2.5,2.4,3.5,4.2l2.8-1.9l2.8-7.9l2.2,3.1
						c0,0-2.9,13.3-7.9,16.5s-13,1.8-16.6-0.7c-3.7-2.5-5.2-7.9-4.3-13.6C305.5,153.3,308.2,148,308.2,148z"/>
					<g>
						<path class="st1" d="M313.9,156c0,1-0.8,1.8-1.7,1.8c-1,0-1.8-0.8-1.8-1.7c0-1,0.8-1.8,1.7-1.8C313,154.3,313.9,155,313.9,156
							z"/>
					</g>
					<g>
						<path class="st1" d="M322.1,157.1c0,1-0.8,1.8-1.7,1.8c-1,0-1.8-0.8-1.8-1.7c0-1,0.8-1.8,1.7-1.8
							C321.2,155.3,322.1,156.1,322.1,157.1z"/>
					</g>
					<g>
						<path class="st1" d="M334.7,164.3c0,0-0.1,0-0.1,0c-0.3-0.1-0.5-0.3-0.4-0.6c0.2-1.1,1-2.1,2.1-2.6c1-0.5,2.3-0.4,3.3,0.2
							c0.2,0.1,0.3,0.5,0.2,0.7c-0.1,0.2-0.5,0.3-0.7,0.2c-0.7-0.4-1.6-0.5-2.3-0.1c-0.7,0.3-1.3,1-1.5,1.8
							C335.1,164.1,334.9,164.3,334.7,164.3z"/>
					</g>
					<g>
						<path class="st1" d="M337,163.9c-0.2,0-0.3-0.1-0.4-0.3l-0.9-1.5c-0.1-0.2-0.1-0.6,0.2-0.7c0.2-0.1,0.6-0.1,0.7,0.2l0.9,1.5
							c0.1,0.2,0.1,0.6-0.2,0.7C337.2,163.9,337.1,163.9,337,163.9z"/>
					</g>
					<path class="st1" d="M340.2,143.3c1.8,0,3.3,1.5,3.8,3.3c0.4,1.7,0,3.6-0.7,5.3c-1,2.5-2.5,4.9-4.3,6.9c-3-0.7-5.6,1.8-6.4,3.1
						c-2.7,4.2-2.9-1.6-0.1-9.3c-3.7-0.7-7-3.3-8.5-6.7c-3,0.8-6.1,1.6-9.2,1.4c-3.1-0.3-6.3-1.9-7.5-4.7c-0.9-2-0.7-4.4,0-6.4
						c1.3-3.8,4.3-7,8.2-8s8.3,0.6,10.3,4c-1.6-0.1-3.1,0.9-3.7,2.4c2.2-1.1,4.9-1.2,7-0.1c2.1,1.1,3.7,3.2,4.1,5.6
						c0.9-0.7,2.2-0.9,3.3-0.6c1.9,0.5,2.7,1.9,2.8,3.3c0.2-1.3,1.2-2.7,2.1-3.2c0.5,0.8,1.2,1.6,1.7,2.5
						C342,142.2,340.2,143.3,340.2,143.3z"/>
					<g>
						<path class="st1" d="M326,151.8c-0.1,0-0.2,0-0.3-0.1c-1.4-1.1-3.5-1.4-5.2-0.8c-0.3,0.1-0.6,0-0.7-0.3
							c-0.1-0.3,0-0.6,0.3-0.7c2-0.8,4.5-0.4,6.2,0.9c0.2,0.2,0.3,0.5,0.1,0.7C326.3,151.8,326.1,151.8,326,151.8z"/>
					</g>
					<g>
						<path class="st1" d="M315.2,151c-0.1,0-0.3-0.1-0.4-0.2c-1.1-1.3-3.3-1.6-4.7-0.6c-0.2,0.2-0.6,0.1-0.7-0.1
							c-0.2-0.2-0.1-0.6,0.1-0.7c1.8-1.4,4.6-1,6.1,0.7c0.2,0.2,0.2,0.6-0.1,0.7C315.5,151,315.3,151,315.2,151z"/>
					</g>
					<path class="st3" d="M322.9,163.8c0.3,1.4,1.6,2.3,3,2.1s2.3-1.6,2.1-3s-1.6-2.3-3-2.1C323.5,161.1,322.6,162.4,322.9,163.8z"
						/>
					<path class="st3" d="M306.2,161.2c0.3,1.4,1.6,2.3,3,2.1s2.3-1.6,2.1-3s-1.6-2.3-3-2.1S305.9,159.8,306.2,161.2z"/>
				</g>
			</g>
			<polygon class="st1" points="354,276.5 381.9,452.4 358.2,452.4 327.6,295.5 333.7,452.4 313,452.4 297.8,276.5 			"/>
			<path class="st4" d="M337,185.6l-8,21.6h-20.7l-1.3-22.1l-4.4,1.6l0.4,20.9l-7.1,15.1c0,0-0.4,34.8-0.7,55.3
				c-0.3,20.5,2.6,120.8,2.6,120.8h79.8l-26.8-175.6l-15.4-15.8l5.6-20.5L337,185.6z"/>
			<g>
				<path class="st2" d="M332,249l-7.2-5.3l-2.8,2.7c0,0-11.2-4.8-11.7-3.9c-0.5,0.9,2.2,2.6,2.2,2.6s0.5,1.9,0.9,3.5
					s2.5,2.5,2.5,2.5s-1,0.6-1.2,1.4c-0.2,0.9,2.1,1.8,2.1,1.8l14.2,4.4L332,249z"/>
				<path class="st2" d="M330.7,248.4c0,0-2.2-4.8-3.7-5.4c-1.5-0.6-7.2-4.3-7.3-3.5c0,0.8,5,6.7,5,6.7L330.7,248.4z"/>
				<path class="st5" d="M308.4,238.4c0,0,9.3,0.5,9.3,5.8c0,4.8-5.6,7.5-11,6.9l1.1-2.4c0,0,8-0.2,7.8-4.2c-0.2-4-7.3-3.4-7.3-3.4
					L308.4,238.4z"/>
				<path class="st2" d="M310.3,242.6c0.4-1.4,10.4,1.1,11.3,1.4c16.3,4.8-1.4,3.7-4.2,3c0,0,1.3,1.2,0.7,2.5
					c-0.3,0.8-2.3,2.1-4.3,0.3c-3.2-2.9-1.3-4.6-1.3-4.6L310.3,242.6z"/>
				<path class="st5" d="M294.2,254.9c3.5,0,7,0,10.5,0.2c4.9-5.6,5.4-18.7,5.4-18.7l-21.5,0.7C288.6,237.1,289.4,249.4,294.2,254.9
					z"/>
			</g>
			<polygon class="st5" points="289.1,263.5 315,259.8 316.4,255.5 289.1,261.1 			"/>
			<g>
				<path class="st2" d="M281.8,266.4l5.8-3.7l2.8,2.7c0,0,11.2-4.8,11.7-3.9s-2.2,2.6-2.2,2.6s-0.5,1.9-0.9,3.5
					c-0.4,1.6-2.5,2.5-2.5,2.5s1,0.6,1.2,1.4c0.2,0.9-2.1,1.8-2.1,1.8l-9.3,2.9c-2.7,0.8-5.7-0.6-6.7-3.3l0,0
					C278.7,270.4,279.7,267.7,281.8,266.4z"/>
				<path class="st2" d="M281.7,267.3c0,0,2.2-4.8,3.7-5.4c1.5-0.6,7.2-4.3,7.3-3.5c0,0.8-5,6.7-5,6.7L281.7,267.3z"/>
				<path class="st2" d="M302.1,261.5c-0.4-1.4-10.4,1.1-11.3,1.4c-16.3,4.8,1.4,3.7,4.2,3c0,0-1.3,1.2-0.7,2.5
					c0.3,0.8,2.3,2.1,4.3,0.3c3.2-2.9,1.3-4.6,1.3-4.6L302.1,261.5z"/>
			</g>
			<path class="st0" d="M354.4,194.2c7.1,5.5,29,54.2,27.7,64.5c-1.3,10.3-51.1,1.8-51.1,1.8l0.8-15.1l30.8,0.9l-11.7-22.9
				L354.4,194.2z"/>
			<g>
				<path class="st1" d="M313.5,161.8c-0.2,0-0.4-0.1-0.5-0.3c-0.3-0.8-0.1-1.3,0.1-1.6c0.3-0.5,0.9-0.8,1.3-0.9l1.5-3.1
					c0.1-0.3,0.4-0.4,0.7-0.2c0.3,0.1,0.4,0.4,0.2,0.7l-1.6,3.4c-0.1,0.2-0.2,0.3-0.4,0.3c-0.2,0-0.6,0.1-0.8,0.4
					c-0.1,0.2-0.1,0.4,0,0.7c0.1,0.3,0,0.6-0.3,0.7C313.7,161.8,313.6,161.8,313.5,161.8z"/>
			</g>
			<g>
				<path class="st2" d="M315,166.6c-0.6,0-1.2-0.1-1.9-0.3c-0.3-0.1-0.4-0.4-0.4-0.6c0.1-0.3,0.4-0.4,0.6-0.4
					c2.1,0.6,3.3,0.2,4.1-1.2c0.1-0.3,0.5-0.3,0.7-0.2c0.3,0.1,0.3,0.5,0.2,0.7C317.7,165.9,316.6,166.6,315,166.6z"/>
			</g>
		</g>
		
			<rect x="0" y="294.3" transform="matrix(-1 -1.224647e-16 1.224647e-16 -1 454.1049 767.9153)" class="st1" width="454.1" height="179.2"/>
		<g>
			<polygon class="st6" points="242.7,231.4 242.7,265.4 232.4,265.4 227.3,231.4 			"/>
			<path class="st7" d="M258,231.4h4.4l5.8,12.7c0.7,1.5,0,3.3-1.6,3.9l0,0c-1.6,0.6-3.3-0.2-3.8-1.8l-3.7-11.1c0,0,1.1,3.9-4.7,5.1
				C248.7,241.5,258,231.4,258,231.4z"/>
			<polygon class="st0" points="242.7,231.4 242.7,265.4 253,265.4 258,231.4 			"/>
			<polygon class="st7" points="232.1,263.3 232.4,265.4 242.7,265.4 242.7,263.3 			"/>
			<polygon class="st7" points="242.7,263.3 242.7,265.4 253,265.4 253.3,263.3 			"/>
			<polygon class="st6" points="242.7,286.2 242.7,265.4 232.4,265.4 227.3,286.2 			"/>
			<polygon class="st0" points="242.7,286.2 242.7,265.4 253,265.4 258,286.2 			"/>
			<polygon class="st8" points="227.3,231.4 223.2,231.4 228.8,241.3 			"/>
			<polygon class="st9" points="244.9,227.6 240.4,227.6 227.3,231.4 258,231.4 			"/>
			<path class="st7" d="M244.9,227.6l0.9-2.7c0.3-0.9-0.4-1.9-1.3-1.9h-3.6c-1,0-1.6,0.9-1.3,1.9l0.9,2.7H244.9z"/>
		</g>
		<rect x="0" y="285.9" class="st5" width="454.1" height="12.2"/>
		<g>
			<path class="st10" d="M173.9,493.9c0,5.1-22.7,9.3-50.6,9.3s-50.6-4.2-50.6-9.3c0-5.1,22.7-9.3,50.6-9.3S173.9,488.8,173.9,493.9
				z"/>
			<g>
				<path class="st2" d="M180.6,251.2c0,0,0.8-7.2,1.1-8.1c0.3-0.9,0-8.9,0.5-9.7c0.5-0.8,1.5,4,1.8,6.7c0,0,5.1,0.9,5.8,2.6
					c0.6,1.7-1,2.2-0.5,3c0.4,0.8,1.4,0.5,0.8,2c-0.6,1.5-5,3.9-5,3.9L180.6,251.2z"/>
				<g>
					<path class="st1" d="M132.4,195.6c0,0,3.5,6,3.1,12.3c-0.4,6.3-6.8-12.2-6.8-12.2L132.4,195.6z"/>
					<g>
						<path class="st2" d="M113.5,236.4l-2.8-14.9c0,0-6.7,3.6-8.2-2.1c-1.4-5.1,4.2-6.4,7.3-4.4c0,0-7.9-17.3,7.6-21.4
							c15.5-4,19.1,17.4,20.1,22.6c1.6,9.1-4.2,14.6-8.9,15.9c0,0-0.3,3.9-0.5,5.2c-0.3,1.9-1.2,5.6-4.5,6.2c-4.2,0.8-6.7-1-8.2-2.9
							C114.4,239.3,113.8,237.9,113.5,236.4z"/>
					</g>
					<g>
						<path class="st2" d="M135,211c0,0,5.8-5.4,8,0.6c2.4,6.5-7.2,6.1-7.2,6.1L135,211z"/>
					</g>
					<g>
						<path class="st1" d="M128.4,210.5c0,0.9,0.8,1.7,1.7,1.7c0.9,0,1.7-0.8,1.7-1.7c0-0.9-0.8-1.7-1.7-1.7
							C129.1,208.7,128.4,209.5,128.4,210.5z"/>
					</g>
					<g>
						<path class="st1" d="M119.9,210.7c0,0.9,0.8,1.7,1.7,1.7c0.9,0,1.7-0.8,1.7-1.7c0-0.9-0.8-1.7-1.7-1.7
							C120.6,208.9,119.8,209.7,119.9,210.7z"/>
					</g>
					<g>
						<path class="st1" d="M126,217.1c-0.2,0-0.4-0.1-0.4-0.3c-0.1-0.2,0-0.5,0.3-0.6c0.6-0.2,1-0.8,1.1-1.5
							c0.1-0.6-0.1-1.2-0.5-1.5c-0.2-0.2-0.2-0.5-0.1-0.6c0.2-0.2,0.5-0.2,0.6-0.1c0.7,0.6,1,1.4,0.8,2.4c-0.2,1-0.8,1.8-1.7,2.2
							C126.2,217.1,126.1,217.1,126,217.1z"/>
					</g>
					<g>
						<path class="st1" d="M126.9,221c-0.5,0-1.1-0.1-1.6-0.2c-1.9-0.4-3.6-1.5-4.8-3.1c-0.1-0.2-0.1-0.5,0.1-0.6
							c0.2-0.2,0.5-0.1,0.6,0.1c1,1.4,2.6,2.4,4.2,2.7c1.7,0.4,3.5,0.1,5-0.8c0.2-0.1,0.5-0.1,0.6,0.2s0.1,0.5-0.2,0.6
							C129.7,220.6,128.3,221,126.9,221z"/>
					</g>
					<g>
						<path class="st1" d="M106.9,219.1c-0.1,0-0.1,0-0.2-0.1c-0.2-0.1-0.3-0.4-0.2-0.6l0.7-1.4c0.1-0.2,0.4-0.3,0.6-0.2
							c0.2,0.1,0.3,0.4,0.2,0.6l-0.8,1.5C107.2,219,107,219.1,106.9,219.1z"/>
					</g>
					<path class="st1" d="M130.6,200.2c-4.6,2.5-14.7,0.1-18,0.8c-3.3,0.8-3,6.7-1.7,10.8c1.2,4.1,0.9,6.3,0.2,5.1
						c-0.7-1.2-4.1-3.3-6.3-2.6c0,0-5.7-8.6-4.5-13.2c1.1-4.6,5.5-3.9,5.5-3.9c-0.7-0.6-0.2-1.6,0-2.5c0.4-1.5,1.4-2.9,2.8-3.8
						c1.3-0.9,3-1.2,4.6-0.9c-0.7-1.7-0.2-4.3,1.2-5.4c1.4-1.2,3.6-1.2,5.1-0.2c1.1-2.7,3.8-4.7,6.7-5c2.9-0.3,5.9,1,7.6,3.4
						c1.7,2.4,2,5.7,0.7,8.3c2,0.5,3.6,2.3,4,4.4c0.3,2.1-0.6,4.3-2.4,5.4C134.4,202.2,132.3,201.3,130.6,200.2z"/>
					<g>
						<path class="st1" d="M116.7,207.1c-0.2,0-0.3-0.1-0.4-0.2c-0.2-0.2-0.2-0.6,0-0.8c1.6-1.4,3.9-1.9,5.9-1.2
							c0.3,0.1,0.4,0.4,0.3,0.7c-0.1,0.3-0.4,0.4-0.7,0.3c-1.6-0.5-3.5-0.1-4.8,1C117,207.1,116.9,207.1,116.7,207.1z"/>
					</g>
					<g>
						<path class="st1" d="M126.9,205.8c-0.1,0-0.2,0-0.3-0.1c-0.2-0.2-0.3-0.5-0.1-0.8c1.3-1.8,4-2.2,5.8-1
							c0.3,0.2,0.3,0.5,0.2,0.8c-0.2,0.3-0.5,0.3-0.8,0.2c-1.3-0.9-3.4-0.5-4.3,0.8C127.2,205.7,127,205.8,126.9,205.8z"/>
					</g>
					<path class="st3" d="M118.8,215.9c-0.2,1.3-1.4,2.3-2.8,2.1c-1.3-0.2-2.3-1.4-2.1-2.8c0.2-1.3,1.4-2.3,2.8-2.1
						C118.1,213.3,119,214.6,118.8,215.9z"/>
					<path class="st3" d="M135.4,215.2c-0.2,1.3-1.4,2.3-2.8,2.1c-1.3-0.2-2.3-1.4-2.1-2.8c0.2-1.3,1.4-2.3,2.8-2.1
						C134.7,212.6,135.6,213.9,135.4,215.2z"/>
				</g>
				<path class="st1" d="M124.5,234.4c4.1-1,5.7-1.9,7.3-5.8c1.6-3.9,3.7-9.9,3.8-14.1c0.1-6.1-0.4-13.3-5.7-16.4
					c-9.2-5.4-26.2-0.2-26.6,11.6C103.2,218.6,109.9,237.9,124.5,234.4z"/>
				<path class="st5" d="M90,253.1c0.4-7.6,6.3-13.8,13.8-14.6l6-0.6c6.1-0.9,12.4-0.6,18.4,0.8l15.2,3.6c3.3,0.8,6.1,2.8,8,5.6
					l-4.1,30.9l-1.6,45.7l-51.4-2.8l-4.7-57.2c-0.1-0.7-0.1-1.3,0-2L90,253.1z"/>
				<path class="st5" d="M151.4,247.9c5.8,7.6,19.2,37.1,19.2,37.1l6.5-36l14.1,2.7c0,0-4.9,44.7-17.5,52.9
					c-12.6,8.2-31.6-33.3-31.6-33.3L151.4,247.9z"/>
				<path class="st0" d="M122,439.7c0,0-1.8,16.3-0.7,17.4c1.1,1.1,15.3,7.4,16.9,6.6c1.6-0.8-5.5-8.6-5.5-8.6l0.9-10.3L122,439.7z"
					/>
				<path class="st0" d="M170.5,441.4c0,0-1.8,16.3-0.7,17.4c1.1,1.1,15.3,7.4,16.9,6.6c1.6-0.8-5.5-8.6-5.5-8.6l0.9-10.3
					L170.5,441.4z"/>
				<path class="st0" d="M94.3,321.7c0,0-5.5,29.4,4.6,29.4s74.3,0,74.3,0l-6.3,94.9l18.6,3.5c0,0,15.4-105.4,9-113.9
					c-6.4-8.5-48.7-11-48.7-11L94.3,321.7z"/>
				<path class="st0" d="M145.4,335.5c-4.1-5.5-23.1-8.5-36.2-9.9v25.5c8.7,0,14.9,0,14.9,0l-6.3,94.9l18.6,3.5
					C136.4,449.4,151.8,344,145.4,335.5z"/>
			</g>
			<g>
				<rect x="89.3" y="460.9" class="st11" width="66.4" height="5.6"/>
				<polygon class="st11" points="102.7,352.2 97.9,352.2 102.3,296.2 107.1,296.2 				"/>
				<polygon class="st11" points="137.3,352.2 132.6,352.2 126.7,296.2 131.5,296.2 				"/>
				<polygon class="st11" points="87.5,493.5 99.8,355.5 93.7,355.5 81.4,493.5 				"/>
				<polygon class="st11" points="157.4,493.5 145.2,355.5 151.3,355.5 163.6,493.5 				"/>
				<rect x="78.1" y="276.9" class="st12" width="82.1" height="26"/>
				<rect x="81.4" y="351.1" class="st7" width="82.1" height="8.8"/>
			</g>
		</g>
	</g>
	<g>
		<rect x="2.9" y="124.1" class="st7" width="172.4" height="10.4"/>
		<path class="st0" d="M26.9,104.2c0,0,10.8-9.3-4.5-9.3c-15.2,0-4.5,9.3-4.5,9.3l-5.5,19.9h19.9L26.9,104.2z"/>
		<path class="st0" d="M52.6,104.2c0,0,10.8-9.3-4.5-9.3c-15.2,0-4.5,9.3-4.5,9.3l-5.5,19.9h19.9L52.6,104.2z"/>
		<g>
			<path class="st13" d="M84.3,56.1V45.8h-5.9v10.3c0,4.8-1.4,9.6-3.9,13.7l0,0c-2.6,4.1-3.9,8.8-3.9,13.7v40.7h21.5V83.4
				c0-4.8-1.4-9.6-3.9-13.7l0,0C85.7,65.6,84.3,60.9,84.3,56.1z"/>
			<path class="st13" d="M85.2,47.1h-7.6c-1,0-1.8-0.8-1.8-1.8l0,0c0-1,0.8-1.8,1.8-1.8h7.6c1,0,1.8,0.8,1.8,1.8l0,0
				C87,46.3,86.2,47.1,85.2,47.1z"/>
		</g>
		<g>
			<path class="st13" d="M113.5,56.1V45.8h-5.9v10.3c0,4.8-1.4,9.6-3.9,13.7l0,0c-2.6,4.1-3.9,8.8-3.9,13.7v40.7h21.5V83.4
				c0-4.8-1.4-9.6-3.9-13.7h0C114.9,65.6,113.5,60.9,113.5,56.1z"/>
			<path class="st13" d="M114.4,47.1h-7.6c-1,0-1.8-0.8-1.8-1.8l0,0c0-1,0.8-1.8,1.8-1.8h7.6c1,0,1.8,0.8,1.8,1.8l0,0
				C116.2,46.3,115.4,47.1,114.4,47.1z"/>
		</g>
	</g>
	<g>
		<g>
			<g>
				<path class="st14" d="M412.3,45.5c4.3,2.5,10.1,1.6,14.1-1.4c4-3,6.5-7.7,7.9-12.5c0.1-0.4,0.2-0.9,0.2-1.4
					c-0.2-1-1.3-1.6-2.3-1.9c-4.9-1.5-10.6-0.4-14.6,2.9c-4,3.3-6.2,8.6-5.6,13.8"/>
			</g>
		</g>
		<g>
			<g>
				<path class="st14" d="M404.7,42.4c6.3-4.8,8.4-13.7,6.5-21.4c-1.9-7.7-7.2-14.1-13.4-19c-0.6-0.5-1.2-0.9-1.9-1.1
					c-1.6-0.3-3.1,0.9-4.1,2.2c-5.2,6.3-6.9,15.2-4.6,23c2.4,7.8,8.8,14.2,16.6,16.5"/>
			</g>
		</g>
		<g>
			<g>
				<rect x="356.5" y="103.1" class="st15" width="97.6" height="7.5"/>
			</g>
		</g>
		<g>
			<g>
				<rect x="364.4" y="108.1" class="st15" width="3.4" height="16.6"/>
			</g>
		</g>
		<g>
			<g>
				<rect x="445" y="108.1" class="st15" width="3.4" height="16.6"/>
			</g>
		</g>
		<g>
			<path class="st15" d="M410.8,80.9c-0.3,0-0.6-0.2-0.7-0.5L394.1,1c-0.1-0.4,0.2-0.7,0.5-0.8s0.7,0.2,0.8,0.5l16,79.3
				c0.1,0.4-0.2,0.7-0.5,0.8C410.9,80.9,410.8,80.9,410.8,80.9z"/>
		</g>
		<g>
			<path class="st15" d="M404.8,51.1c-0.2,0-0.4-0.1-0.6-0.3c-0.2-0.3-0.1-0.7,0.2-0.9l19.9-13.1c0.3-0.2,0.7-0.1,0.9,0.2
				c0.2,0.3,0.1,0.7-0.2,0.9L405.2,51C405,51.1,404.9,51.1,404.8,51.1z"/>
		</g>
		<g>
			<g>
				<path class="st4" d="M406.3,100.9h-1.5c-11.5,0-20.9-9.3-20.9-20.9v-9.3c0-6.1,5-11.1,11.1-11.1h21.1c6.1,0,11.1,5,11.1,11.1V80
					C427.2,91.5,417.8,100.9,406.3,100.9z"/>
			</g>
		</g>
	</g>
</g>
<g id="Capa_2" class="st16">
	
		<image style="display:inline;overflow:visible;opacity:0.2;" width="366" height="387" xlink:href="../../../../Desktop/Captura de pantalla 2024-09-24 a la(s) 7.52.13 p.m..png"  transform="matrix(1.3656 0 0 1.3656 509.8847 179.8217)">
	</image>
</g>
</svg>
