<?xml version="1.0" encoding="utf-8"?>
<!-- Generator: Adobe Illustrator 25.0.1, SVG Export Plug-In . SVG Version: 6.00 Build 0)  -->
<svg version="1.1" id="OBJECTS" xmlns="http://www.w3.org/2000/svg" xmlns:xlink="http://www.w3.org/1999/xlink" x="0px" y="0px"
	 viewBox="0 0 989.7 564.6" style="enable-background:new 0 0 989.7 564.6;" xml:space="preserve">
<style type="text/css">
	.st0{fill:#001A2D;}
	.st1{fill:#D9782C;}
	.st2{fill:#1ABB9C;}
	.st3{fill:#FF5710;}
	.st4{fill:#E8A7CB;}
	.st5{fill:#FCF8F0;}
	.st6{fill:#2A2C3D;}
	.st7{fill:#FFF195;}
	.st8{fill:#FFAA2D;}
	.st9{fill:none;stroke:#2A2C3D;stroke-width:1.8117;stroke-miterlimit:10;}
	.st10{fill:#F59984;}
	.st11{fill:#A9BED6;}
	.st12{fill:#FFC7BA;}
	.st13{fill:#555769;}
	.st14{fill:#FFFFFF;}
	.st15{fill:#D7E6FA;}
	.st16{fill:#484A63;}
	.st17{fill:#7A7D96;}
	.st18{fill:#8F635A;}
	.st19{fill:#36374A;}
</style>
<g>
	<g>
		<polygon class="st0" points="940.7,495.9 933.8,405.1 937.8,405.1 944.7,495.9 		"/>
		<polygon class="st0" points="891.2,495.9 898.1,405.1 894.1,405.1 887.2,495.9 		"/>
		<path class="st0" d="M941.6,400.9c0,0,7.9-54.2,6.2-64.6c-1.7-10.4-10.1-8.7-14.8,6.9c-4.7,15.6-16.3,57.7-16.3,57.7H941.6z"/>
		<rect x="890.3" y="400.9" class="st1" width="51.4" height="6.6"/>
	</g>
	<g>
		<polygon class="st0" points="685.7,495.9 692.6,405.1 688.5,405.1 681.6,495.9 		"/>
		<polygon class="st0" points="735.1,495.9 728.2,405.1 732.3,405.1 739.2,495.9 		"/>
		<path class="st0" d="M684.7,400.9c0,0-7.9-54.2-6.2-64.6c1.7-10.4,10.1-8.7,14.8,6.9c4.7,15.6,16.3,57.7,16.3,57.7H684.7z"/>
		<rect x="684.7" y="400.9" class="st1" width="51.4" height="6.6"/>
	</g>
	<g>
		<g>
			<g>
				<rect x="813.2" y="373.8" class="st0" width="3.6" height="123.3"/>
			</g>
			<g>
				<rect x="721.5" y="364.4" class="st0" width="186.8" height="4.1"/>
			</g>
			<g>
				<rect x="786.5" y="492.5" class="st0" width="57" height="4.5"/>
			</g>
		</g>
		<g>
			<polygon class="st2" points="776,363.3 815,402.3 854,363.3 			"/>
		</g>
		<g>
			<g>
				<g>
					<path class="st2" d="M827.9,287.4c0,0,0.8,12.6-13.9,14.3C814,301.7,812.9,288.4,827.9,287.4z"/>
				</g>
			</g>
			<g>
				<path class="st2" d="M813.8,307.4c-0.4,0-0.8-0.3-0.8-0.8l-0.5-23.1c0-0.4,0.3-0.8,0.8-0.8c0.4,0,0.8,0.3,0.8,0.8l0.5,23.1
					C814.6,307.1,814.3,307.4,813.8,307.4C813.8,307.4,813.8,307.4,813.8,307.4z"/>
			</g>
			<g>
				<path class="st3" d="M816.6,317.1v-11.9h-5.8v11.9c-4.5,0.9-7.9,4.8-7.9,9.6v36.5h21.7v-36.5C824.5,322,821.1,318,816.6,317.1z"
					/>
			</g>
			<g>
				<g>
					<path class="st4" d="M813.6,286.2L813.6,286.2c-3.4,0-6.1-2.7-6.1-6.1v-5.3c0-1.1,0.9-1.9,1.9-1.9h8.4c1.1,0,1.9,0.9,1.9,1.9
						v5.3C819.7,283.4,817,286.2,813.6,286.2z"/>
				</g>
			</g>
		</g>
	</g>
</g>
<g>
	<g>
		<polygon class="st0" points="299.7,495.9 292.8,405.1 296.9,405.1 303.8,495.9 		"/>
		<polygon class="st0" points="250.3,495.9 257.2,405.1 253.1,405.1 246.2,495.9 		"/>
		<path class="st0" d="M300.7,400.9c0,0,7.9-54.2,6.2-64.6c-1.7-10.4-10.1-8.7-14.8,6.9c-4.7,15.6-16.3,57.7-16.3,57.7H300.7z"/>
		<rect x="249.3" y="400.9" class="st1" width="51.4" height="6.6"/>
	</g>
	<g>
		<polygon class="st0" points="44.7,495.9 51.7,405.1 47.6,405.1 40.7,495.9 		"/>
		<polygon class="st0" points="94.2,495.9 87.3,405.1 91.4,405.1 98.3,495.9 		"/>
		<path class="st0" d="M43.8,400.9c0,0-7.9-54.2-6.2-64.6c1.7-10.4,10.1-8.7,14.8,6.9c4.7,15.6,16.3,57.7,16.3,57.7H43.8z"/>
		<rect x="43.8" y="400.9" class="st1" width="51.4" height="6.6"/>
	</g>
	<g>
		<g>
			<g>
				<rect x="172.2" y="373.8" class="st0" width="3.6" height="123.3"/>
			</g>
			<g>
				<rect x="80.6" y="364.4" class="st0" width="186.8" height="4.1"/>
			</g>
			<g>
				<rect x="145.5" y="492.5" class="st0" width="57" height="4.5"/>
			</g>
		</g>
		<g>
			<polygon class="st2" points="135,363.3 174,402.3 213,363.3 			"/>
		</g>
		<g>
			<g>
				<g>
					<path class="st2" d="M187,287.4c0,0,0.8,12.6-13.9,14.3C173.1,301.7,172,288.4,187,287.4z"/>
				</g>
			</g>
			<g>
				<path class="st2" d="M172.9,307.4c-0.4,0-0.8-0.3-0.8-0.8l-0.5-23.1c0-0.4,0.3-0.8,0.8-0.8c0.4,0,0.8,0.3,0.8,0.8l0.5,23.1
					C173.7,307.1,173.3,307.4,172.9,307.4C172.9,307.4,172.9,307.4,172.9,307.4z"/>
			</g>
			<g>
				<path class="st3" d="M175.6,317.1v-11.9h-5.8v11.9c-4.5,0.9-7.9,4.8-7.9,9.6v36.5h21.7v-36.5C183.6,322,180.1,318,175.6,317.1z"
					/>
			</g>
			<g>
				<g>
					<path class="st4" d="M172.7,286.2L172.7,286.2c-3.4,0-6.1-2.7-6.1-6.1v-5.3c0-1.1,0.9-1.9,1.9-1.9h8.4c1.1,0,1.9,0.9,1.9,1.9
						v5.3C178.8,283.4,176,286.2,172.7,286.2z"/>
				</g>
			</g>
		</g>
	</g>
</g>
<g>
	<g>
		<polygon class="st0" points="148.9,198 142.8,117.8 146.4,117.8 152.5,198 		"/>
		<polygon class="st0" points="105.2,198 111.3,117.8 107.7,117.8 101.6,198 		"/>
		<path class="st0" d="M149.8,114.1c0,0,7-47.9,5.4-57.1c-1.5-9.2-8.9-7.7-13.1,6.1c-4.1,13.8-14.4,51-14.4,51H149.8z"/>
		<rect x="104.4" y="114.1" class="st1" width="45.4" height="5.8"/>
	</g>
	<g>
		<g>
			<g>
				<rect x="36.2" y="90.1" class="st0" width="3.2" height="109"/>
			</g>
			<g>
				<rect x="-1.7" y="81.8" class="st0" width="122.1" height="3.6"/>
			</g>
			<g>
				<rect x="12.6" y="195.1" class="st0" width="50.4" height="3.9"/>
			</g>
		</g>
		<g>
			<polygon class="st2" points="3.3,80.8 37.8,115.3 72.3,80.8 			"/>
		</g>
		<g>
			<g>
				<g>
					<path class="st2" d="M49.3,13.7c0,0,0.7,11.1-12.3,12.6C37,26.4,36,14.6,49.3,13.7z"/>
				</g>
			</g>
			<g>
				<path class="st2" d="M36.8,31.5c-0.4,0-0.7-0.3-0.7-0.7l-0.4-20.4c0-0.4,0.3-0.7,0.7-0.7c0.4,0,0.7,0.3,0.7,0.7l0.4,20.4
					C37.5,31.1,37.2,31.4,36.8,31.5C36.8,31.5,36.8,31.5,36.8,31.5z"/>
			</g>
			<g>
				<path class="st3" d="M39.2,40V29.5h-5.1V40c-4,0.8-7,4.3-7,8.5v32.3h19.1V48.5C46.2,44.3,43.2,40.8,39.2,40z"/>
			</g>
			<g>
				<g>
					<path class="st4" d="M36.6,12.7L36.6,12.7c-3,0-5.4-2.4-5.4-5.4V2.6c0-0.9,0.8-1.7,1.7-1.7h7.4c0.9,0,1.7,0.8,1.7,1.7v4.7
						C42,10.2,39.6,12.7,36.6,12.7z"/>
				</g>
			</g>
		</g>
	</g>
</g>
<g>
	<g>
		<polygon class="st0" points="837.4,198 843.5,117.8 839.9,117.8 833.8,198 		"/>
		<polygon class="st0" points="881.1,198 875,117.8 878.6,117.8 884.7,198 		"/>
		<path class="st0" d="M836.5,114.1c0,0-7-47.9-5.4-57.1c1.5-9.2,8.9-7.7,13.1,6.1s14.4,51,14.4,51H836.5z"/>
		<rect x="836.5" y="114.1" class="st1" width="45.4" height="5.8"/>
	</g>
	<g>
		<g>
			<g>
				<rect x="950" y="90.1" class="st0" width="3.2" height="109"/>
			</g>
			<g>
				<rect x="869" y="81.8" class="st0" width="120.7" height="3.6"/>
			</g>
			<g>
				<rect x="926.4" y="195.1" class="st0" width="50.4" height="3.9"/>
			</g>
		</g>
		<g>
			<polygon class="st2" points="917.1,80.8 951.6,115.3 986.1,80.8 			"/>
		</g>
		<g>
			<g>
				<g>
					<path class="st2" d="M963.1,13.7c0,0,0.7,11.1-12.3,12.6C950.8,26.4,949.8,14.6,963.1,13.7z"/>
				</g>
			</g>
			<g>
				<path class="st2" d="M950.6,31.5c-0.4,0-0.7-0.3-0.7-0.7l-0.4-20.4c0-0.4,0.3-0.7,0.7-0.7c0.4,0,0.7,0.3,0.7,0.7l0.4,20.4
					C951.3,31.1,951,31.4,950.6,31.5C950.6,31.5,950.6,31.5,950.6,31.5z"/>
			</g>
			<g>
				<path class="st3" d="M953,40V29.5h-5.1V40c-4,0.8-7,4.3-7,8.5v32.3H960V48.5C960,44.3,957,40.8,953,40z"/>
			</g>
			<g>
				<g>
					<path class="st4" d="M950.4,12.7L950.4,12.7c-3,0-5.4-2.4-5.4-5.4V2.6c0-0.9,0.8-1.7,1.7-1.7h7.4c0.9,0,1.7,0.8,1.7,1.7v4.7
						C955.8,10.2,953.4,12.7,950.4,12.7z"/>
				</g>
			</g>
		</g>
	</g>
</g>
<g>
	<g>
		<g>
			<path class="st5" d="M405.1,336.6c0,0,17.4,6.2,24.1,16.3c6.7,10.1,16.9,106,16.9,106l-26.6-7.6l-15.2-82.2L405.1,336.6z"/>
		</g>
		<g>
			<path class="st5" d="M326,338.3c0,0-16.5,1.7-23.8,23.6L282,455.3l26.6-7.6l23.6-88.9L326,338.3z"/>
		</g>
		<g>
			<polygon class="st6" points="363.6,564.6 368.3,514.5 311,515.8 313.1,564.6 			"/>
		</g>
		<g>
			<polygon class="st6" points="411.3,564.6 411.7,513.1 350.4,513.1 356.7,564.6 			"/>
		</g>
		<g>
			<g>
				<polygon class="st3" points="351,324.9 321.3,337.8 317,465.7 304.6,521.6 417.3,521.6 406.4,457.9 411.8,337.8 384.2,324.9 
									"/>
			</g>
			<g>
				<rect x="382.7" y="384.4" class="st7" width="18.4" height="6.1"/>
			</g>
			<g>
				<rect x="358.2" y="391.2" class="st5" width="1.8" height="130.1"/>
			</g>
			<g>
				<rect x="376.6" y="471" class="st5" width="20.5" height="1.8"/>
			</g>
			<g>
				<rect x="326.6" y="471" class="st5" width="19" height="1.8"/>
			</g>
		</g>
		<g>
			<g>
				<polygon class="st5" points="358.9,402.3 399.2,331.9 384.2,324.9 351,324.9 334.3,332.2 				"/>
			</g>
		</g>
		<g>
			<g>
				<g>
					<rect x="351.6" y="287.2" class="st8" width="32.2" height="37.5"/>
				</g>
				<g>
					<path class="st0" d="M370.7,316.8c3.3-4.4,5-8.4,5.4-13.8c0.4-4.8,0.4-10.9,0-15.7h-24.5v41.4
						C358.9,326.8,366.2,322.9,370.7,316.8z"/>
				</g>
			</g>
			<g>
				<path class="st5" d="M362.8,324.7l-3,14.7l-12.5-3.2l3.7-14.7c0,0,12.5,7.9,32.6-3.2l3.3,16.3l-18.4,5.6L362.8,324.7z"/>
			</g>
			<g>
				<g>
					<path class="st0" d="M354.3,329.9c-0.8-0.5-1.8-1-2.6-0.6c-0.9,0.4-1.1,1.7-1.1,2.7c0,2.2-0.1,4.5-0.1,6.7c0,0.7,0,1.3,0.2,2
						c0.2,0.6,0.6,1.2,1.2,1.5c1,0.4,2.1-0.3,3-1c1.3-1,2.7-2,4-3c0.9-0.7,3.1-1.8,2.8-3.2c-0.2-1.1-2-1.8-2.8-2.3
						C357.3,331.9,355.8,330.9,354.3,329.9z"/>
				</g>
				<g>
					<path class="st0" d="M372.1,329.9c0.8-0.5,1.8-1,2.6-0.6c0.9,0.4,1.1,1.7,1.1,2.7c0,2.2,0.1,4.5,0.1,6.7c0,0.7,0,1.3-0.2,2
						c-0.2,0.6-0.6,1.2-1.2,1.5c-1,0.4-2.1-0.3-3-1c-1.3-1-2.7-2-4-3c-0.9-0.7-3.1-1.8-2.8-3.2c0.2-1.1,2-1.8,2.8-2.3
						C369.1,331.9,370.6,330.9,372.1,329.9z"/>
				</g>
				<g>
					<path class="st0" d="M367.4,335.5c0,2.4-1.9,4.3-4.3,4.3c-2.4,0-4.3-1.9-4.3-4.3c0-2.4,1.9-4.3,4.3-4.3
						C365.5,331.2,367.4,333.1,367.4,335.5z"/>
				</g>
			</g>
		</g>
		<g>
			<g>
				<path class="st8" d="M333.8,251l-2.9,33.7c0,0,2.8,26.4,19.7,28.9c17,2.5,33.7-21.1,33.7-24.8l2.4-33.8
					c1-14.7-10.4-27.5-25.2-27.8c-0.2,0-0.4,0-0.6,0c-2.3,0-4.5,0.2-6.7,0.6C343,230,334.8,239.7,333.8,251z"/>
			</g>
			<g>
				<path class="st0" d="M389.9,240.1c1.8-5.8-1.3-12.2-6.1-15.8c-4.8-3.6-11-4.8-17.1-4.9c-7.3-0.1-14.5,1.2-21.3,3.8
					c-6.4,2.5-13.2,7.4-20.1,3.6c0.1,3.4,0.4,6.8,1.6,10c1.2,3.2,3.3,6.1,6.2,7.9c2.9,1.8,6.4,2.4,9.8,2.3c3.6,0,7.2-0.2,10.7-0.6
					c7.4-0.8,14.7-2.7,21.6-5.8c0,3.8,0,7.5,0,11.3c0,1.4,0.2,3.2,1.5,3.7c0.7,0.3,1.7,0.1,2.3,0.5c0.8,0.5,0.9,1.6,0.8,2.5
					c0,4.5,0,9-0.1,13.6c3.4-0.2,6.8-0.3,10.2-0.5c2.7-5.2,4.8-10.1,5.3-15.9C395.8,250.2,394.4,243.9,389.9,240.1z"/>
			</g>
		</g>
		<g>
			<g>
				<path class="st0" d="M342.1,285.6c-0.1,0-0.2,0-0.3-0.1c-0.5-0.2-0.7-0.7-0.5-1.2l5.3-14.3l-1.3-4.7c-0.1-0.5,0.2-1,0.6-1.1
					c0.5-0.1,1,0.2,1.1,0.6l1.4,5.2L343,285C342.8,285.4,342.5,285.6,342.1,285.6z"/>
			</g>
			<g>
				<path class="st0" d="M341.6,269.4c0,1.6-1.3,2.9-2.9,2.9c-1.6,0-2.9-1.3-2.9-2.9c0-1.6,1.3-2.9,2.9-2.9
					C340.3,266.5,341.6,267.8,341.6,269.4z"/>
			</g>
			<g>
				<path class="st0" d="M364.6,269.5c0,1.6-1.3,2.9-2.9,2.9c-1.6,0-2.9-1.3-2.9-2.9c0-1.6,1.3-2.9,2.9-2.9
					C363.3,266.6,364.6,267.9,364.6,269.5z"/>
			</g>
			<g>
				<path class="st0" d="M334.5,259.1c-0.4,0-0.8-0.3-0.9-0.7c-0.1-0.5,0.2-1,0.7-1.1c3.4-0.7,5.4-0.7,9,0c0.5,0.1,0.8,0.6,0.7,1.1
					c-0.1,0.5-0.6,0.8-1.1,0.7c-3.4-0.7-5.1-0.7-8.3,0C334.7,259.1,334.6,259.1,334.5,259.1z"/>
			</g>
			<g>
				<path class="st0" d="M371,261.2c-0.1,0-0.2,0-0.3,0c-4.1-1.3-8.5-1.9-12.7-1.6c-0.5,0.1-0.9-0.3-1-0.8c0-0.5,0.3-0.9,0.8-1
					c4.5-0.3,9.1,0.3,13.4,1.7c0.5,0.2,0.7,0.7,0.6,1.1C371.7,260.9,371.3,261.2,371,261.2z"/>
			</g>
		</g>
		<g>
			<path class="st9" d="M359.1,521.3"/>
		</g>
		<g>
			<g>
				<g>
					<path class="st10" d="M365.9,505.9c-2.5-1.3-5.5-0.6-8.2-0.7c-2.8-0.1-6.4-1.6-8.8,0.1c-0.9,0.6-1.3,1.7-0.7,2.7
						c1.8,3,6.5,2.7,9.6,2.4c3-0.2,6.8-0.6,8.5-3.5C366.4,506.7,366.3,506.2,365.9,505.9L365.9,505.9z"/>
				</g>
			</g>
			<g>
				<polygon class="st8" points="339.7,499.6 364.1,512.1 354.8,527 335.7,521.6 324.1,507.5 335.8,496 				"/>
			</g>
			<g>
				<g>
					<path class="st8" d="M376.8,528.4c-0.6-5.8-6.6-10.6-10.9-14c-4.7-3.7-10.5-8.2-16.6-8.8c-2.2-0.2-3.4,2.9-1.8,4.3
						c4.5,4,10.6,6.1,15.4,9.8c4,3.1,7.5,8.2,12.3,9.9C375.9,529.9,376.9,529.2,376.8,528.4L376.8,528.4z"/>
				</g>
			</g>
			<g>
				<g>
					<path class="st8" d="M373.9,533.8c-2.3-10.8-14-20.3-23.3-25.4c-3.3-1.8-6,2.9-2.9,5c4.9,3.3,9.5,6.7,13.7,10.8
						c3.7,3.6,6.9,7.6,11.1,10.7C373.2,535.4,374,534.6,373.9,533.8L373.9,533.8z"/>
				</g>
			</g>
			<g>
				<g>
					<path class="st8" d="M365.8,534.6c1.1-4.5-2.9-9.5-5.4-12.8c-2.7-3.6-6.5-9.1-11.3-9.6c-1.5-0.2-2.7,1.6-2.3,3
						c1.2,3.9,6.2,6.9,8.8,10c2.7,3.1,4.9,8.3,8.8,10C364.9,535.4,365.6,535.3,365.8,534.6L365.8,534.6z"/>
				</g>
			</g>
			<g>
				<g>
					<path class="st8" d="M357.1,533.6c2.5-3-0.1-8.2-1.6-11.1c-1.9-3.6-5.2-8.9-9.4-9.9c-2.4-0.6-3.9,1.8-3,3.9
						c0.7,1.7,2.1,2.6,3.3,3.9c1.5,1.6,2.7,3.3,3.8,5.1c1.5,2.5,2.6,7.1,5.4,8.3C356.1,534,356.7,534,357.1,533.6L357.1,533.6z"/>
				</g>
			</g>
		</g>
		<g>
			<g>
				<g>
					<path class="st8" d="M343.3,500c0.5,3.2,3.9,5,6.6,6.3c2.6,1.3,7.4,3.6,9.8,1.3c0.8-0.8,1-1.7,0.4-2.7
						c-1.4-2.5-5.6-2.4-8.1-3.3c-2.5-0.9-5.2-2.8-8-2.4C343.6,499.1,343.3,499.5,343.3,500L343.3,500z"/>
				</g>
			</g>
			<g>
				<polygon class="st8" points="369.3,499.3 342.9,506.5 348.8,523 368.6,521.7 382.9,510.3 373.9,496.6 				"/>
			</g>
			<g>
				<g>
					<path class="st8" d="M328.5,519.8c5.1-0.7,9.8-4.8,14.5-7c5.4-2.4,11.4-3.2,16.6-5.7c2.4-1.2,1.2-4.5-1.2-4.8
						c-6.2-0.6-12.9,2.5-18.4,5.1c-4.8,2.3-11,5.5-13.1,10.7C326.5,519.2,327.6,520,328.5,519.8L328.5,519.8z"/>
				</g>
			</g>
			<g>
				<g>
					<path class="st8" d="M330.1,527c4.8-2.1,8.8-5.5,13.2-8.3c4.8-3,9.9-5.3,15.1-7.4c3.4-1.4,2.1-6.8-1.6-5.6
						c-10.1,3.2-23.6,9.8-28.2,20C328.4,526.6,329.2,527.4,330.1,527L330.1,527z"/>
				</g>
			</g>
			<g>
				<g>
					<path class="st8" d="M336.6,530.1c4.1-0.9,7.2-5.3,10.4-7.8c1.9-1.5,3.9-2.9,6-4.1c2-1.2,3.8-1.8,4.9-3.9
						c0.9-1.7-0.3-3.3-2-3.5c-4.4-0.5-9.6,4.5-12.8,7.2c-3.1,2.7-7.9,6.7-7.8,11.2C335.4,529.9,336,530.3,336.6,530.1L336.6,530.1z"
						/>
				</g>
			</g>
			<g>
				<g>
					<path class="st8" d="M344.6,531.5c1.6-0.2,2.5-1.5,3.5-2.8c1.3-1.6,2.5-3.1,3.9-4.6c1.3-1.3,2.7-2.6,4.2-3.7
						c1.7-1.2,3.5-1.9,4.6-3.8c1-1.8-0.3-3.8-2.3-4c-4-0.3-8.7,4.6-11.1,7.5c-2,2.4-6.2,7.4-4.1,10.7
						C343.6,531.4,344.1,531.6,344.6,531.5L344.6,531.5z"/>
				</g>
			</g>
		</g>
		<g>
			<g>
				<polygon class="st5" points="446.2,458.9 380.7,515 369.2,497.9 419.5,451.3 				"/>
			</g>
			<g>
				<path class="st0" d="M393.9,505c-0.2,0-0.5-0.1-0.7-0.3l-14.1-15.9c-0.3-0.4-0.3-0.9,0.1-1.3c0.4-0.3,0.9-0.3,1.3,0.1l14.1,15.9
					c0.3,0.4,0.3,0.9-0.1,1.3C394.3,505,394.1,505,393.9,505z"/>
			</g>
			<g>
				<path class="st11" d="M430,452.5h-10.6c-0.5,0-0.9-0.4-0.9-0.9c0-0.5,0.4-0.9,0.9-0.9H430c0.5,0,0.9,0.4,0.9,0.9
					C430.9,452,430.5,452.5,430,452.5z"/>
			</g>
			<g>
				<path class="st0" d="M369.3,499.2c-0.2,0-0.5-0.1-0.7-0.3c-0.3-0.4-0.3-0.9,0-1.3l60.4-56.5c0.4-0.3,0.9-0.3,1.3,0
					c0.3,0.4,0.3,0.9,0,1.3L369.9,499C369.7,499.1,369.5,499.2,369.3,499.2z"/>
			</g>
		</g>
		<g>
			<g>
				<polygon class="st5" points="282,455.3 326,514.5 339.5,497.4 308.6,447.7 				"/>
			</g>
			<g>
				<path class="st0" d="M312.9,498c-0.2,0-0.5-0.1-0.7-0.3c-0.3-0.4-0.3-0.9,0.1-1.3l16.9-15.3c0.4-0.3,0.9-0.3,1.3,0.1
					c0.3,0.4,0.3,0.9-0.1,1.3l-16.9,15.3C313.4,498,313.1,498,312.9,498z"/>
			</g>
			<g>
				<path class="st0" d="M340,499.2c-0.3,0-0.6-0.2-0.8-0.4l-35.1-56.5c-0.3-0.4-0.1-1,0.3-1.2c0.4-0.3,1-0.1,1.2,0.3l35.1,56.5
					c0.3,0.4,0.1,1-0.3,1.2C340.3,499.2,340.1,499.2,340,499.2z"/>
			</g>
			<g>
				<path class="st0" d="M308.7,448.5C308.7,448.5,308.7,448.5,308.7,448.5c-0.5,0-0.9-0.4-0.9-0.9l0.4-11.1c0-0.5,0.4-0.9,0.9-0.9
					c0.5,0,0.9,0.4,0.9,0.9l-0.4,11.1C309.6,448.1,309.2,448.5,308.7,448.5z"/>
			</g>
		</g>
		<g>
			<g>
				<path class="st5" d="M330.1,283.4l15.4-6l24.8,8.4l-1,24c0,0-6.6,8.1-19.4,6.9C338.3,315.5,331.2,306,330.1,283.4z"/>
			</g>
			<g>
				<path class="st0" d="M368.2,288c-0.2,0-0.5-0.1-0.7-0.3c-0.3-0.4-0.3-0.9,0-1.3l16.7-16.1c0.4-0.3,0.9-0.3,1.3,0
					c0.3,0.4,0.3,0.9,0,1.3l-16.7,16.1C368.7,287.9,368.4,288,368.2,288z"/>
			</g>
			<g>
				<path class="st0" d="M370,311.1c-0.2,0-0.4-0.1-0.5-0.2c-0.4-0.3-0.5-0.9-0.2-1.3l15.9-21.3c0.3-0.4,0.9-0.5,1.3-0.2
					c0.4,0.3,0.5,0.9,0.2,1.3l-15.9,21.3C370.5,310.9,370.2,311.1,370,311.1z"/>
			</g>
			<g>
				<path class="st8" d="M384.8,288.8c-3.8,0.5-3.3-5.1-3.2-7.4c0.3-4.8,0.6-9.9,4.2-13.6c1.9-1.9,5.2-2.8,7.3-1.2
					c1.9,1.5,2.3,4.2,2,6.6c-0.6,5.5-3.4,10.8-7.8,14.2C386.6,288.1,385.7,288.7,384.8,288.8z"/>
			</g>
			<g>
				<path class="st0" d="M358.1,291.1H337c-0.5,0-0.9-0.4-0.9-0.9c0-0.5,0.4-0.9,0.9-0.9h21.1c0.5,0,0.9,0.4,0.9,0.9
					C359,290.7,358.6,291.1,358.1,291.1z"/>
			</g>
			<g>
				<path class="st0" d="M358,297.3h-18.9c-0.5,0-0.9-0.4-0.9-0.9s0.4-0.9,0.9-0.9H358c0.5,0,0.9,0.4,0.9,0.9S358.5,297.3,358,297.3
					z"/>
			</g>
			<g>
				<path class="st0" d="M357,303.4h-14.8c-0.5,0-0.9-0.4-0.9-0.9s0.4-0.9,0.9-0.9H357c0.5,0,0.9,0.4,0.9,0.9S357.5,303.4,357,303.4
					z"/>
			</g>
		</g>
	</g>
	<g>
		<g>
			<path class="st8" d="M576.9,443.9l8.6-47.2c0.8-4.2-1.1-8.5-4.8-10.8l0,0c-6.4-4-14.8-0.2-16,7.2l-9.3,57.4L576.9,443.9z"/>
		</g>
		<g>
			<path class="st8" d="M672.3,443.9l-8.6-47.2c-0.8-4.2,1.1-8.5,4.8-10.8l0,0c6.4-4,14.8-0.2,16,7.2l9.3,57.4L672.3,443.9z"/>
		</g>
		<g>
			<path class="st12" d="M667.8,564.6l2.4-20.5c1.5-13.3-8.6-24.7-20.6-23.1l-7.9,1.1c-11.2,1.5-19.6,12.2-19.5,24.8l0.2,17.7H667.8
				z"/>
		</g>
		<g>
			<path class="st12" d="M583.2,564.6h44.5l0.6-18.1c0.4-12.3-7.7-22.8-18.6-24.3l-4.8-0.6c-13.8-1.9-25.4,11.2-23.6,26.5
				L583.2,564.6z"/>
		</g>
		<g>
			<path class="st10" d="M667.8,564.6l2.4-20.5c1.5-13.3-8.6-24.7-20.6-23.1l-7.9,1.1c-11.2,1.5-19.6,12.2-19.5,24.8l0.2,17.7H667.8
				z"/>
		</g>
		<g>
			<path class="st10" d="M583.2,564.6h44.5l0.6-18.1c0.4-12.3-7.7-22.8-18.6-24.3l-4.8-0.6c-13.8-1.9-25.4,11.2-23.6,26.5
				L583.2,564.6z"/>
		</g>
		<g>
			<path class="st13" d="M684.4,564.6c0.3-10.9,0.2-18,0.2-18c-5.1-49.7-24-85.5-24-85.5l-69.5,1c-14.1,18.4-18.2,61.4-18.4,102.5
				H684.4z"/>
		</g>
		<g>
			<g>
				<g>
					<g>
						<path class="st14" d="M580,497c-2.5-0.3-4.4-2.6-4-5.2c0.4-2.6,2.7-4.4,5.3-4c2.5,0.4,4.2,2.7,3.9,5.2
							C584.8,495.5,582.5,497.3,580,497z"/>
					</g>
				</g>
				<g>
					<g>
						<path class="st14" d="M579,506.2c-2.5-0.2-4.4-2.5-4.2-5.1c0.3-2.6,2.6-4.4,5.1-4.1c2.5,0.3,4.4,2.6,4.1,5.1
							C583.8,504.6,581.6,506.5,579,506.2z"/>
					</g>
				</g>
				<g>
					<g>
						<path class="st14" d="M578.3,515.5c-2.6-0.2-4.5-2.4-4.3-5c0.2-2.6,2.5-4.5,5-4.3c2.5,0.2,4.4,2.5,4.2,5
							C583,513.7,580.9,515.6,578.3,515.5z"/>
					</g>
				</g>
				<g>
					<g>
						<path class="st14" d="M577.9,524.7c-2.6-0.1-4.6-2.2-4.4-4.8c0.1-2.6,2.3-4.6,4.9-4.4c2.6,0.2,4.5,2.3,4.4,4.8
							C582.6,522.8,580.4,524.8,577.9,524.7z"/>
					</g>
				</g>
				<g>
					<g>
						<path class="st14" d="M577.7,534c-2.6,0-4.6-2.1-4.6-4.7c0-2.6,2.2-4.6,4.8-4.5c2.6,0.1,4.6,2.2,4.5,4.7
							C582.3,531.9,580.3,534,577.7,534z"/>
					</g>
				</g>
				<g>
					<g>
						<path class="st14" d="M577.8,543.2c-2.6,0.1-4.7-1.9-4.7-4.6c0-2.6,2-4.7,4.6-4.7c2.6,0,4.6,2.1,4.7,4.6
							C582.4,541,580.4,543.1,577.8,543.2z"/>
					</g>
				</g>
				<g>
					<g>
						<path class="st14" d="M578.3,552.5c-2.6,0.2-4.8-1.8-4.9-4.4c-0.1-2.6,1.9-4.8,4.4-4.9c2.6-0.1,4.7,1.9,4.8,4.4
							C582.8,550.1,580.9,552.3,578.3,552.5z"/>
					</g>
				</g>
				<g>
					<g>
						<path class="st14" d="M579.2,561.7c-2.5,0.3-4.9-1.5-5.1-4.2c-0.2-2.6,1.7-4.9,4.2-5.1c2.5-0.2,4.8,1.7,5,4.2
							C583.6,559.1,581.8,561.4,579.2,561.7z"/>
					</g>
				</g>
				<g>
					<g>
						<path class="st14" d="M584.1,564.6c-0.8-1.9-2.7-3.2-4.9-2.9c-1.7,0.2-3.1,1.4-3.7,2.9H584.1z"/>
					</g>
				</g>
			</g>
			<g>
				<path class="st14" d="M684.4,564.6c0.3-10.9,0.2-18,0.2-18c-5.1-49.7-24-85.5-24-85.5l-69.5,1c-3.5,4.6-6.4,10.8-8.8,18
					c-2.7,19.1-6.4,53.7-2.2,84.5H684.4z"/>
			</g>
			<g>
				<path class="st14" d="M591.1,462c0,0,35.6,10.3,69.5-1l3.8-20.8l-75,2.6L591.1,462z"/>
			</g>
			<g>
				<path class="st15" d="M591.1,462L591.1,462c-1.1,1.4-2.1,3-3,4.6l0.1,0.8c0,0,35.6,10.3,69.5-1l0.9-4.8
					C625.2,471.9,591.1,462.1,591.1,462z"/>
			</g>
		</g>
		<g>
			<g>
				<g>
					<path class="st8" d="M607.5,507.6c3.1,3.7,11,0,14.3-1.7c0.8-0.4,1.5-1.5,1.4-2.4c-0.1-1.2-0.4-1.8-1.4-2.4
						c-0.8-0.5-2-0.5-2.8,0c-2.2,1.3-4.5,2.2-7,3c-1.8,0.6-3.6,0.9-4.6,2.6C607.2,506.9,607.3,507.3,607.5,507.6L607.5,507.6z"/>
				</g>
			</g>
			<g>
				<g>
					<path class="st8" d="M608.6,524.8c3.1-2.1,4.5-6.6,6.5-9.7c2.4-3.8,6.4-6.8,8.5-10.7c0.8-1.5-0.6-4-2.4-3.2
						c-4.3,1.8-7.4,6.4-9.8,10.2c-2.2,3.3-5.6,8.7-4.3,12.8C607.2,524.8,608,525.2,608.6,524.8L608.6,524.8z"/>
				</g>
			</g>
			<g>
				<g>
					<path class="st8" d="M611.8,530.1c2.7-3.4,4.1-7.5,6.1-11.3c2.2-4.3,5-8.2,7.9-12c1.9-2.5-2.2-5.6-4.3-3.3
						c-5.8,6.5-12.8,17-11.3,26.2C610.4,530.4,611.4,530.6,611.8,530.1L611.8,530.1z"/>
				</g>
			</g>
			<g>
				<g>
					<path class="st8" d="M618,529.8c2.6-2.2,3-6.3,4.2-9.4c1.3-3.4,4.3-7,4.4-10.6c0-1.7-1.9-2.6-3.3-1.9c-3.5,1.8-5,6.9-6.1,10.5
						c-1.1,3.3-2.7,8.1-0.6,11.3C616.9,530.2,617.5,530.2,618,529.8L618,529.8z"/>
				</g>
			</g>
			<g>
				<g>
					<path class="st8" d="M624.5,527.6c1.9-1.5,1.6-5,2.1-7.1c0.7-2.8,2.5-5.3,2.8-8.2c0.1-1.6-2-2.7-3.3-1.9
						c-2.8,1.8-3.9,6-4.4,9.2c-0.4,2.4-1,6.8,1.6,8.2C623.8,528,624.2,527.9,624.5,527.6L624.5,527.6z"/>
				</g>
			</g>
			<g>
				<polygon class="st8" points="630.6,496.4 618.9,501.8 611.8,510.8 623.7,520.5 638,510.8 643.5,497.4 				"/>
			</g>
			<g>
				<path class="st8" d="M619.1,501.8l-0.2,0.1l-7.1,9l11.9,9.7l8.5-5.8C627.4,510.8,623,506.6,619.1,501.8z"/>
			</g>
		</g>
		<g>
			<path class="st2" d="M654,337.4l11.8,5.3c7,3.2,12.1,9.5,13.7,17.1l9,43.8l-25.1,9.2l-12.6-44.4L654,337.4z"/>
		</g>
		<g>
			<g>
				<polygon class="st5" points="660.9,411.6 689.8,390.2 693.7,406.7 662.2,417.5 				"/>
			</g>
			<g>
				<g>
					<g>
						<path class="st14" d="M668.5,415.3c0.6,1.8-0.3,3.8-2,4.4c-1.7,0.6-3.7-0.4-4.3-2.2c-0.6-1.8,0.3-3.8,2-4.4
							C666,412.5,667.9,413.5,668.5,415.3z"/>
					</g>
				</g>
			</g>
		</g>
		<g>
			<path class="st2" d="M667.5,343.1l-19.6-12h-51.8l-15.1,7.8l10.8,88.7c0,0-8.3,17-2,22c6.3,5,56.6,8.5,73.6-1.3
				c17-9.8,4.5-15.8,3.8-24.8C666.5,414.5,667.5,343.1,667.5,343.1z"/>
		</g>
		<g>
			<polygon class="st0" points="588.1,335.3 581.1,338.9 591.8,427.6 598,363.1 			"/>
		</g>
		<g>
			<path class="st2" d="M589.3,334.7l-12.9,6.6c-6.7,3.8-11.2,11-12.1,18.6l-6,50.2l25.8,7l15.8-57.3L589.3,334.7z"/>
		</g>
		<g>
			<path class="st0" d="M638.4,454.5C638.4,454.5,638.4,454.5,638.4,454.5c-0.5,0-0.9-0.4-0.9-0.9l2.3-67.8l-6.3-24.7
				c-0.1-0.5,0.2-1,0.7-1.1c0.5-0.1,1,0.2,1.1,0.7l6.4,24.9l-2.3,68C639.3,454.1,638.9,454.5,638.4,454.5z"/>
		</g>
		<g>
			<g>
				<polygon class="st5" points="587.1,413.5 556.5,394.7 554,411.5 586.3,419.5 				"/>
			</g>
		</g>
		<g>
			<polygon class="st8" points="555.4,450.5 612.5,507.6 618.9,496.4 576.9,443.9 			"/>
		</g>
		<g>
			<polygon class="st8" points="693.8,450.5 636.7,507.6 630.3,496.4 672.3,443.9 			"/>
		</g>
		<g>
			<polygon class="st5" points="589.3,334.3 608.7,319.6 634.8,319.6 657.6,336.5 649.9,360.7 611.7,360.7 			"/>
		</g>
		<g>
			<path class="st0" d="M659.7,244.7c2.6,15.1,3.4,41.1,0.8,70l-64-0.5l-0.8-60.5c0,0,4.3-44.8,44.1-33.3
				C652.1,224.1,658.1,235.4,659.7,244.7z"/>
		</g>
		<g>
			<polygon class="st8" points="606.6,286.6 608.3,323.6 634.3,360.9 637,325.7 635.9,286.6 			"/>
		</g>
		<g>
			<path class="st0" d="M618.9,310.6c4.7,5.6,10.9,9.3,17.9,10.7l-1-34.8h-24.6C611.2,295.4,613,303.6,618.9,310.6z"/>
		</g>
		<g>
			<path class="st8" d="M655,242.1l1,37.4c0,0-5,26.4-23.5,27.7c-18.5,1.4-31.3-27.2-31.3-27.2l0.5-32.5c0.2-15.3,13.8-27.1,29-25
				c0.2,0,0.5,0.1,0.7,0.1C654.6,226.3,655,242.1,655,242.1z"/>
		</g>
		<g>
			<circle class="st0" cx="626.7" cy="267.9" r="3.1"/>
		</g>
		<g>
			<circle class="st0" cx="647.8" cy="267.9" r="3.1"/>
		</g>
		<g>
			<path class="st0" d="M639.8,275.9c-0.5,0-0.9-0.4-0.9-0.9l-0.3-9.1c0-0.5,0.4-0.9,0.9-0.9c0.5,0,0.9,0.4,0.9,0.9l0.3,9.1
				C640.7,275.5,640.3,275.9,639.8,275.9C639.8,275.9,639.8,275.9,639.8,275.9z"/>
		</g>
		<g>
			<path class="st0" d="M617.2,257.7c-0.4,0-0.7-0.2-0.8-0.6c-0.2-0.5,0-1,0.5-1.2c4.7-1.8,10-2.1,14.9-0.8c0.5,0.1,0.8,0.6,0.6,1.1
				c-0.1,0.5-0.6,0.8-1.1,0.6c-4.5-1.2-9.4-1-13.8,0.7C617.4,257.7,617.3,257.7,617.2,257.7z"/>
		</g>
		<g>
			<path class="st0" d="M654.5,258.7c-0.2,0-0.3,0-0.5-0.1c-2.6-1.5-5.6-2.2-8.6-1.9c-0.5,0-0.9-0.3-1-0.8c0-0.5,0.3-0.9,0.8-1
				c3.3-0.3,6.8,0.5,9.7,2.2c0.4,0.3,0.6,0.8,0.3,1.2C655.1,258.5,654.8,258.7,654.5,258.7z"/>
		</g>
		<g>
			<path class="st0" d="M617.9,281c-0.2,0-0.4-0.1-0.6-0.2L603.7,268c-0.4-0.3-0.4-0.9,0-1.3c0.3-0.4,0.9-0.4,1.3,0l13.5,12.7
				c0.4,0.3,0.4,0.9,0,1.3C618.4,280.9,618.1,281,617.9,281z"/>
		</g>
		<g>
			<path class="st0" d="M617.3,304c-0.3,0-0.6-0.1-0.7-0.4l-12.4-17.8c-0.3-0.4-0.2-1,0.2-1.3c0.4-0.3,1-0.2,1.3,0.2l12.4,17.8
				c0.3,0.4,0.2,1-0.2,1.3C617.6,303.9,617.4,304,617.3,304z"/>
		</g>
		<g>
			<path class="st5" d="M617.2,280.1l23.9-5.2l16.1,3.7c0,0-5.1,23.5-10.9,27.2c-9.4,5.9-26.6,3.9-29.9-2.8L617.2,280.1z"/>
		</g>
		<g>
			<path class="st0" d="M646.6,285h-16.9c-0.5,0-0.9-0.4-0.9-0.9c0-0.5,0.4-0.9,0.9-0.9h16.9c0.5,0,0.9,0.4,0.9,0.9
				C647.6,284.6,647.1,285,646.6,285z"/>
		</g>
		<g>
			<path class="st0" d="M641.8,291.9h-10.2c-0.5,0-0.9-0.4-0.9-0.9s0.4-0.9,0.9-0.9h10.2c0.5,0,0.9,0.4,0.9,0.9
				S642.3,291.9,641.8,291.9z"/>
		</g>
		<g>
			<path class="st0" d="M610,316c0,0-5.4-43.7-0.6-67.1c0,0,1.9,10.8,2.6,11.6l16.8-1.4l-2.5-13.2c0,0,7.9,12.7,11.2,13.7
				c0,0,9.2-0.7,11.3-0.3l1.4-17.1l2.5,17.3l5.9,0.8c0,0,5.7-37.7-22.2-41.7c-18.5-2.6-40.4,5.4-43.9,27c-4,25.1-3.5,69.1-3.5,69.1
				S598.6,315.1,610,316z"/>
		</g>
		<g>
			<rect x="649.1" y="376.7" class="st5" width="18.4" height="6.1"/>
		</g>
		<g>
			<g>
				<g>
					<path class="st8" d="M648.9,496.4c-1.8-0.6-3.4,0.2-5.2,0.8c-2.4,0.8-4.8,1.6-7.3,1.9c-0.9,0.1-1.9,0.7-2.3,1.6
						c-0.4,1.1-0.4,1.8,0.3,2.8c0.5,0.8,1.6,1.3,2.5,1.2c3.7-0.6,12.3-2.5,12.5-7.3C649.4,497,649.3,496.6,648.9,496.4L648.9,496.4z
						"/>
				</g>
			</g>
			<g>
				<polygon class="st8" points="623.8,500.7 636.5,499 647.4,502.8 642.6,517.3 625.2,516.7 612.5,507.6 618.9,496.4 				"/>
			</g>
			<g>
				<g>
					<path class="st8" d="M658.1,508.6c-2-3.9-7.5-5.6-11.5-6.7c-4.6-1.3-10.4-2.9-15.1-1.5c-1.9,0.6-2.8,3.5-0.4,4.3
						c4.5,1.5,9.6,1.2,14.3,2.4c3.8,1,7.8,3.5,11.8,3.1C657.9,510.2,658.4,509.2,658.1,508.6L658.1,508.6z"/>
				</g>
			</g>
			<g>
				<g>
					<path class="st8" d="M658.8,515.3c-5.2-8.2-18-11.5-27.1-12.5c-3.7-0.4-4.1,4.9-0.6,5.6c5,1,9.8,2.1,14.6,3.9
						c4,1.5,7.8,3.6,12.1,4.3C658.5,516.7,659.2,515.9,658.8,515.3L658.8,515.3z"/>
				</g>
			</g>
			<g>
				<g>
					<path class="st8" d="M652.7,518.7c-0.2-3.8-5.4-6.5-8.3-8.1c-3.1-1.8-8-4.9-11.6-3.3c-1.4,0.6-1.5,2.2-0.7,3.3
						c1.2,1.7,2.8,1.8,4.6,2.5c1.9,0.7,3.8,1.5,5.7,2.4c2.8,1.4,6.2,4.6,9.6,4.2C652.5,519.6,652.7,519.1,652.7,518.7L652.7,518.7z"
						/>
				</g>
			</g>
			<g>
				<g>
					<path class="st8" d="M645.7,522c1.5-2.6-2.3-5.8-4.1-7.3c-2.3-1.9-6.4-4.6-9.4-3.5c-1.3,0.5-1.4,2.2-0.7,3.2
						c1,1.4,2.8,1.6,4.3,2.3c1.4,0.7,2.6,1.5,3.8,2.4C640.5,519.8,644.5,524.1,645.7,522L645.7,522z"/>
				</g>
			</g>
		</g>
	</g>
	<g>
		<g>
			<path class="st0" d="M541.3,353.5c0,0,6.3,0.7,10.2,36.4l8.2,67.5l-21.2-7.2l-12.8-66.5L541.3,353.5z"/>
		</g>
		<g>
			<path class="st0" d="M435.2,353.5c0,0-6.3,0.7-10.2,36.4l-8.2,67.5l21.2-7.2l12.8-66.5L435.2,353.5z"/>
		</g>
		<g>
			<g>
				<path class="st0" d="M433.3,564.6H545c2.3-0.8,3.5-1.3,3.5-1.3c-5.3-69.4-26.6-103.7-26.6-103.7l19.7-106.1l-9.1-6.2h-88.2
					l-9.1,6.2l19.7,106.1c0,0-21.4,34.3-26.6,103.7C428.2,563.3,430,563.8,433.3,564.6z"/>
			</g>
			<g>
				<g>
					<g>
						<path class="st16" d="M458.1,469.5c-0.4,0-0.8-0.3-0.9-0.7l-2.8-11.8c-0.1-0.5,0.2-1,0.7-1.1c0.5-0.1,1,0.2,1.1,0.7l2.8,11.8
							c0.1,0.5-0.2,1-0.7,1.1C458.2,469.5,458.1,469.5,458.1,469.5z"/>
					</g>
				</g>
				<g>
					<g>
						<path class="st16" d="M454.9,469.5C454.9,469.5,454.9,469.5,454.9,469.5c-0.6,0-0.9-0.5-0.9-1l0.6-8.3c0-0.5,0.5-0.9,1-0.8
							c0.5,0,0.9,0.5,0.8,1l-0.6,8.3C455.8,469.2,455.4,469.5,454.9,469.5z"/>
					</g>
				</g>
			</g>
			<g>
				<g>
					<g>
						<path class="st16" d="M518.6,469.5c-0.1,0-0.1,0-0.2,0c-0.5-0.1-0.8-0.6-0.7-1.1l2.8-11.8c0.1-0.5,0.6-0.8,1.1-0.7
							c0.5,0.1,0.8,0.6,0.7,1.1l-2.8,11.8C519.4,469.3,519.1,469.5,518.6,469.5z"/>
					</g>
				</g>
				<g>
					<g>
						<path class="st16" d="M521.8,469.5c-0.5,0-0.9-0.4-0.9-0.8l-0.6-8.3c0-0.5,0.3-0.9,0.8-1c0.5,0,0.9,0.3,1,0.8l0.6,8.3
							C522.8,469.1,522.4,469.5,521.8,469.5C521.9,469.5,521.8,469.5,521.8,469.5z"/>
					</g>
				</g>
			</g>
			<g>
				<g>
					<path class="st16" d="M494.4,564.6V379.8c0-0.5-0.4-0.9-0.9-0.9c-0.5,0-0.9,0.4-0.9,0.9v184.8H494.4z"/>
				</g>
			</g>
			<g>
				<path class="st16" d="M491.2,377.5l29.8-7.4c0,0-7-12.3-7.2-12.9l-25.2,17.7L491.2,377.5z"/>
			</g>
			<g>
				<path class="st17" d="M538.9,351.3c-15.1-9-33.1-26.3-33.6-26.5l-18.4,41.2l-2,5.1l4.2,4.2l31.4-18.4l-7-7.2L538.9,351.3z"/>
			</g>
			<g>
				<path class="st16" d="M461.4,357.2c-0.2,0.6-7.2,12.9-7.2,12.9l39.3,9.7L461.4,357.2z"/>
			</g>
			<g>
				<path class="st17" d="M469.8,324.9c-0.6,0.2-18.6,17.5-33.6,26.5l25.4-1.5l-7,7.2l39,22.8l-5.3-13.7L469.8,324.9z"/>
			</g>
			<g>
				<path class="st5" d="M489.7,391.2c0,1.5-1.2,2.7-2.7,2.7c-1.5,0-2.7-1.2-2.7-2.7c0-1.5,1.2-2.7,2.7-2.7
					C488.5,388.5,489.7,389.7,489.7,391.2z"/>
			</g>
			<g>
				<path class="st5" d="M489.7,411.1c0,1.5-1.2,2.7-2.7,2.7c-1.5,0-2.7-1.2-2.7-2.7c0-1.5,1.2-2.7,2.7-2.7
					C488.5,408.4,489.7,409.6,489.7,411.1z"/>
			</g>
			<g>
				<path class="st5" d="M489.7,431c0,1.5-1.2,2.7-2.7,2.7c-1.5,0-2.7-1.2-2.7-2.7c0-1.5,1.2-2.7,2.7-2.7
					C488.5,428.3,489.7,429.5,489.7,431z"/>
			</g>
			<g>
				<path class="st5" d="M489.7,450.9c0,1.5-1.2,2.7-2.7,2.7c-1.5,0-2.7-1.2-2.7-2.7c0-1.5,1.2-2.7,2.7-2.7
					C488.5,448.2,489.7,449.4,489.7,450.9z"/>
			</g>
			<g>
				<path class="st5" d="M489.7,470.8c0,1.5-1.2,2.7-2.7,2.7c-1.5,0-2.7-1.2-2.7-2.7c0-1.5,1.2-2.7,2.7-2.7
					C488.5,468.1,489.7,469.3,489.7,470.8z"/>
			</g>
			<g>
				<g>
					<path class="st16" d="M467.6,530.2H444c-0.5,0-0.9-0.4-0.9-0.9c0-0.5,0.4-0.9,0.9-0.9h23.6c0.5,0,0.9,0.4,0.9,0.9
						C468.5,529.8,468.1,530.2,467.6,530.2z"/>
				</g>
			</g>
			<g>
				<g>
					<path class="st16" d="M536.6,530.2h-23.6c-0.5,0-0.9-0.4-0.9-0.9c0-0.5,0.4-0.9,0.9-0.9h23.6c0.5,0,0.9,0.4,0.9,0.9
						C537.5,529.8,537.1,530.2,536.6,530.2z"/>
				</g>
			</g>
			<g>
				<rect x="508.1" y="382.4" class="st5" width="18.4" height="6.1"/>
			</g>
		</g>
		<g>
			<g>
				<path class="st5" d="M473.3,319.5c0,0-11.4-0.7-5.6,15c5.8,15.7,20.6,31.6,20.6,31.6s17.2-25.6,18.8-34.7
					c1.6-9-5.2-11.6-7.6-11.9C497.1,319.1,473.3,319.5,473.3,319.5z"/>
			</g>
			<g>
				<path class="st8" d="M472.4,300c0,0,1.3,15.7,0.9,30.7l15,35.4l13-35.4c0,0-4.7-13.2-1.6-30L472.4,300z"/>
			</g>
			<g>
				<path class="st0" d="M472.4,300c0,0,0.5,2.3,0.7,10.2c3.5,2.5,7.8,4.2,13.1,4.2c4.9,0,9-1.5,12.4-3.7c-0.1-4,0.1-5.1,1-9.9
					L472.4,300z"/>
			</g>
		</g>
		<g>
			<g>
				<path class="st0" d="M506.7,226.6c0,0-3.5-12.8-22.1-12.8c-18.5,0-39.6,19.9-27,58.6c0,0,1.2,13-0.5,27.3l5.4-5.4l-1.9,9.9
					l7.9-5.4l40.1-9.8l1.7,7.9l6.1-15.2C516.5,281.9,528.3,231.8,506.7,226.6z"/>
			</g>
			<g>
				<path class="st8" d="M514.6,269.5c1-0.4,2.2-0.6,3.2-0.1c0.9,0.5,1.5,1.5,1.7,2.5c0.2,1,0.1,2.1-0.1,3.1
					c-0.7,4.1-2.6,8.1-5.4,11.2c-0.8,0.9-1.9,1.7-2.9,1.2c-0.8-0.5-0.9-1.6-0.9-2.6c0-3.1,0-6.1,0.1-9.2
					C510.2,272.4,511.7,270.7,514.6,269.5z"/>
			</g>
			<g>
				<path class="st8" d="M459,269.5c-1-0.4-2.2-0.6-3.2-0.1c-0.9,0.5-1.5,1.5-1.7,2.5c-0.2,1-0.1,2.1,0.1,3.1
					c0.7,4.1,2.6,8.1,5.4,11.2c0.8,0.9,1.9,1.7,2.9,1.2c0.8-0.5,0.9-1.6,0.9-2.6c0-3.1,0-6.1-0.1-9.2
					C463.4,272.4,461.9,270.7,459,269.5z"/>
			</g>
			<g>
				<path class="st8" d="M486.3,310.9c9.6,0,16-5.6,20.1-11.5c4.2-6.2,6.3-13.6,6.4-21.1L513,244c0,0-1.3-20.7-26.7-20.7
					S459.5,244,459.5,244l0.3,34.3c0.1,7.5,2.1,14.9,6.4,21.1C470.2,305.3,476.6,310.9,486.3,310.9z"/>
			</g>
		</g>
		<g>
			<g>
				<circle class="st0" cx="471" cy="272.6" r="3.1"/>
			</g>
			<g>
				<circle class="st0" cx="497.6" cy="272.6" r="3.1"/>
			</g>
			<g>
				<path class="st0" d="M486.8,287.3C486.8,287.3,486.8,287.3,486.8,287.3l-5.1,0l1.1-19.5c0-0.5,0.5-0.9,1-0.9
					c0.5,0,0.9,0.5,0.9,1l-1,17.6h3.2c0.5,0,0.9,0.4,0.9,0.9C487.8,286.9,487.3,287.3,486.8,287.3z"/>
			</g>
			<g>
				<path class="st0" d="M485.4,297.7c-0.1,0-0.2,0-0.4,0c-2-0.1-3.7-1.1-5.3-3c-0.3-0.4-0.3-1,0.1-1.3c0.4-0.3,1-0.3,1.3,0.1
					c1.2,1.4,2.5,2.2,3.9,2.3c2.7,0.1,5.1-2.1,5.2-2.2c0.4-0.3,0.9-0.3,1.3,0c0.3,0.4,0.3,0.9,0,1.3
					C491.4,295.2,488.7,297.7,485.4,297.7z"/>
			</g>
		</g>
		<g>
			<g>
				<path class="st0" d="M513.5,276.2c0,0-13-14.8-11.8-32.4c0,0-14.8,12.5-34.5,17.9l8.3-10.6l-17.9,14
					c3.7-2.9-12.3-44.8,30.2-44.8c0,0,28.3,0,28,32.9L513.5,276.2z"/>
			</g>
			<g>
				<path class="st0" d="M480.2,264.1c-0.3,0-0.6-0.2-0.8-0.4c-0.3-0.4-0.1-1,0.3-1.2c8-4.8,15.1-11.4,20.5-18.9
					c0.3-0.4,0.9-0.5,1.3-0.2c0.4,0.3,0.5,0.9,0.2,1.3c-5.6,7.8-12.8,14.5-21,19.4C480.6,264,480.4,264.1,480.2,264.1z"/>
			</g>
		</g>
		<g>
			<g>
				<g>
					<path class="st8" d="M510,521.3c-0.2-4.5-5.5-8.3-8.9-10.7c-3.7-2.7-8.7-6.2-13.4-6.2c-2,0-2.8,2.7-1.4,3.9
						c3.4,3,8.4,4.4,12.2,7.1c3.1,2.2,6.3,6.3,10.1,7.1C509.3,522.6,510,522,510,521.3L510,521.3z"/>
				</g>
			</g>
			<g>
				<g>
					<path class="st8" d="M505.9,526.6c-1.4-8.5-10.9-16.1-18-20c-3-1.6-5.3,2.6-2.6,4.5c3.7,2.6,7.3,5.2,10.6,8.3
						c2.9,2.8,5.3,6,8.7,8.1C505.3,528,506,527.3,505.9,526.6L505.9,526.6z"/>
				</g>
			</g>
			<g>
				<g>
					<path class="st8" d="M500.3,528.3c1.3-3.4-2.2-7.8-4.1-10.3c-2.1-2.7-5.2-7.4-8.9-7.4c-1.4,0-2.3,1.3-2,2.6
						c0.4,1.9,1.7,2.7,3.1,4c1.4,1.4,2.8,2.8,4.1,4.3c2,2.3,3.8,6.4,6.9,7.4C499.7,529,500.1,528.7,500.3,528.3L500.3,528.3z"/>
				</g>
			</g>
			<g>
				<g>
					<path class="st8" d="M494.4,530.4c2.6-1.9,0.5-6.4-0.7-8.7c-1.4-2.9-4.3-7.6-7.7-8.2c-1.6-0.3-3.5,1-2.9,2.9
						c0.6,1.8,1.8,2.6,3.1,4c1.3,1.4,2.4,3,3.3,4.7C490.2,526.2,492.3,532,494.4,530.4L494.4,530.4z"/>
				</g>
			</g>
			<g>
				<g>
					<path class="st18" d="M503.2,502.8c-2.4-1.1-5.3,0.3-7.7,0.7c-2.6,0.4-5.9-0.4-7.5,2.1c-0.4,0.5-0.5,1.4-0.1,2
						c0.1,0.1,0.2,0.3,0.2,0.4c0.5,0.8,1.3,1.6,2.3,1.5c4-0.2,12.4-0.8,13.4-5.8C503.8,503.3,503.5,503,503.2,502.8L503.2,502.8z"/>
				</g>
			</g>
			<g>
				<polygon class="st8" points="478.5,498.5 499.8,509.5 491.7,522.5 475,517.8 464.9,505.5 475.1,495.4 				"/>
			</g>
			<g>
				<path class="st18" d="M489.2,504c-4.2,4.6-8,9.5-11.7,14.4l14.2,4l8.1-13L489.2,504z"/>
			</g>
		</g>
		<g>
			<g>
				<g>
					<path class="st8" d="M481.4,501.6c0.8,2.7,4.1,3.4,6.6,3.9c2.5,0.5,7.1,1.4,8.5-1.4c0.4-0.8,0.4-1.6-0.2-2.3
						c-1.7-2.1-4.9-1.1-7.3-1.2c-2.3-0.1-5.2-1.2-7.3,0.1C481.6,500.9,481.3,501.3,481.4,501.6L481.4,501.6z"/>
				</g>
			</g>
			<g>
				<polygon class="st8" points="502,496.4 486.2,504.4 487.8,519.7 504.7,515.7 515.3,503.9 505.5,493.4 				"/>
			</g>
			<g>
				<g>
					<path class="st8" d="M474.1,519.3c3.9-0.9,7.2-5.2,10.5-7.5c3.6-2.5,8.2-3.9,11.5-6.8c1.5-1.3,0.3-3.8-1.6-3.8
						c-4.9,0.1-10,3.8-13.7,6.7c-3.2,2.4-7.8,5.9-8.1,10.2C472.6,519,473.5,519.5,474.1,519.3L474.1,519.3z"/>
				</g>
			</g>
			<g>
				<g>
					<path class="st8" d="M476.5,524.7c3.6-2,6.4-5.3,9.4-8c3.5-3.2,7.4-5.7,11.4-8.2c2.9-1.8,0.4-6.1-2.7-4.6
						c-7.5,3.7-17.8,11.1-19.5,19.8C475,524.5,475.7,525.1,476.5,524.7L476.5,524.7z"/>
				</g>
			</g>
			<g>
				<g>
					<path class="st8" d="M481.6,527c3.4-0.8,5.5-5.2,7.7-7.6c1.4-1.5,3-3,4.5-4.4c1.5-1.3,2.9-2.1,3.4-4.1c0.4-1.4-0.7-2.7-2.1-2.8
						c-3.9-0.2-7.8,5-10,7.8c-2.1,2.6-5.8,6.8-4.5,10.4C480.6,526.9,481.1,527.1,481.6,527L481.6,527z"/>
				</g>
			</g>
			<g>
				<g>
					<path class="st8" d="M488.1,527.7c2.5-0.1,3.6-4.1,4.8-5.8c0.9-1.3,1.9-2.6,3-3.8c1.2-1.2,2.3-1.9,2.9-3.6
						c0.5-1.3-0.8-3-2.2-2.8c-3.7,0.4-6.8,4.9-8.4,8C487.8,520.8,484.7,527.8,488.1,527.7L488.1,527.7z"/>
				</g>
			</g>
		</g>
		<g>
			<g>
				<path class="st14" d="M474.9,282.8c-0.2,0-0.5-0.1-0.6-0.3c-0.4-0.4-0.4-0.9,0-1.3l20.9-20.9c0.4-0.4,0.9-0.4,1.3,0
					c0.4,0.4,0.4,0.9,0,1.3l-20.9,20.9C475.4,282.7,475.2,282.8,474.9,282.8z"/>
			</g>
			<g>
				<path class="st14" d="M474.3,272.1c-0.2,0-0.5-0.1-0.6-0.3c-0.4-0.4-0.4-0.9,0-1.3l8.5-8.5c0.4-0.4,0.9-0.4,1.3,0s0.4,0.9,0,1.3
					l-8.5,8.5C474.8,272,474.6,272.1,474.3,272.1z"/>
			</g>
			<g>
				<path class="st14" d="M487.1,283.8c-0.2,0-0.5-0.1-0.6-0.3c-0.4-0.4-0.4-0.9,0-1.3l6.6-6.6c0.4-0.4,0.9-0.4,1.3,0
					c0.4,0.4,0.4,0.9,0,1.3l-6.6,6.6C487.6,283.7,487.4,283.8,487.1,283.8z"/>
			</g>
			<g>
				<path class="st5" d="M509.3,317.9h-46.2c-6,0-10.8-4.9-10.8-10.8v-66.3h67.8V307C520.1,313,515.3,317.9,509.3,317.9z
					 M454.1,242.6V307c0,5,4,9,9,9h46.2c5,0,9-4,9-9v-64.5H454.1z"/>
			</g>
			<g>
				<path class="st5" d="M521,245.9h-69.6c-1.6,0-2.8-1.3-2.8-2.8l0,0c0-1.6,1.3-2.8,2.8-2.8H521c1.6,0,2.8,1.3,2.8,2.8l0,0
					C523.8,244.7,522.6,245.9,521,245.9z"/>
			</g>
		</g>
		<g>
			<g>
				<polygon class="st0" points="438,450.2 475.6,494.8 465.8,508.8 416.7,457.4 				"/>
			</g>
			<g>
				<circle class="st7" cx="463.4" cy="498.5" r="2.7"/>
			</g>
			<g>
				
					<rect x="451.7" y="489.7" transform="matrix(0.7311 -0.6822 0.6822 0.7311 -210.965 445.9727)" class="st19" width="17.2" height="1.8"/>
			</g>
		</g>
		<g>
			<g>
				<polygon class="st0" points="538.4,450.2 502.1,494.8 511.9,508.8 559.7,457.4 				"/>
			</g>
			<g>
				<circle class="st7" cx="514.4" cy="498.5" r="2.7"/>
			</g>
			<g>
				
					<rect x="517" y="480.2" transform="matrix(0.7037 -0.7105 0.7105 0.7037 -194.0691 512.9083)" class="st19" width="1.8" height="17.9"/>
			</g>
		</g>
	</g>
</g>
</svg>
