<?xml version="1.0" encoding="utf-8"?>
<!-- Generator: Adobe Illustrator 25.0.1, SVG Export Plug-In . SVG Version: 6.00 Build 0)  -->
<svg version="1.1" id="OBJECTS" xmlns="http://www.w3.org/2000/svg" xmlns:xlink="http://www.w3.org/1999/xlink" x="0px" y="0px"
	 viewBox="0 0 499.7 425.8" style="enable-background:new 0 0 499.7 425.8;" xml:space="preserve">
<style type="text/css">
	.st0{opacity:7.000000e-02;fill:#3F2517;}
	.st1{fill:#9BCC9B;}
	.st2{fill:none;stroke:#5C905C;stroke-width:1.0308;stroke-linecap:round;stroke-linejoin:round;stroke-miterlimit:10;}
	.st3{fill:#ED7C00;}
	.st4{fill:#EF9300;}
	.st5{fill:none;stroke:#ED7C00;stroke-width:1.0308;stroke-linecap:round;stroke-linejoin:round;stroke-miterlimit:10;}
	.st6{fill:#7EA57E;}
	.st7{fill:#5C905C;}
	.st8{fill:#4C7C4C;}
	.st9{fill:#F2C383;}
	.st10{fill:#FFD797;}
	.st11{fill:#FF6460;}
	.st12{fill:#FFFFFF;}
	.st13{fill:#FEC4BA;}
	.st14{clip-path:url(#SVGID_2_);}
	.st15{fill:#70A0DF;}
	.st16{fill:#99BFEF;}
	.st17{fill:#99BFF1;}
	.st18{fill:#292C4A;}
</style>
<g>
	<g>
		<path class="st0" d="M96.7,102.1c1.2,4.4,5.7,7.1,10.1,5.9l3.1-0.8c-2.3,2-3.5,5.2-2.6,8.4c1.2,4.4,5.7,7.1,10.1,5.9l6.2-1.6
			c-2.9,8.2-0.6,17.5,6.3,23.3l43.5,36.3c2.6,2.1,5.9,2.7,9,1.7c1.1-0.3,2.1-0.9,3-1.6c3.5-2.8,4.6-7.6,2.6-11.6l-24.9-50.6
			c-4.2-8.5-13.5-13.1-22.7-11.4l2.5-4.5c2.2-4,0.7-9.1-3.4-11.2l0,0c-2.9-1.6-6.3-1.2-8.8,0.6l1.5-2.8c2.2-4,0.7-9.1-3.4-11.2
			c-4-2.2-9.1-0.7-11.2,3.4l-0.7,1.3l-0.3-0.4c-2.8-3.6-8-4.2-11.6-1.4c-3.6,2.8-4.2,8-1.4,11.6l0.3,0.4l-1.4,0.4
			C98.1,93.1,95.5,97.7,96.7,102.1L96.7,102.1z"/>
		<path class="st0" d="M34,190c-13.9-4.2-29.1,4.9-29.1,4.9s7.5,16.1,21.4,20.3c13.9,4.2,29.1-4.9,29.1-4.9S47.9,194.2,34,190z"/>
		<path class="st0" d="M247.4,184c0,0-4.2,23,7.7,38.2c11.8,15.2,35.1,16.8,35.1,16.8s4.2-23-7.7-38.2
			C270.7,185.7,247.4,184,247.4,184z"/>
		<path class="st0" d="M465.3,214.9c-17.9,2.3-30.3,20.4-30.3,20.4s16.6,14.3,34.5,12c17.9-2.3,30.3-20.4,30.3-20.4
			S483.2,212.6,465.3,214.9z"/>
		<path class="st0" d="M243.6,400.3c-7.4,10.4-4,25.5-4,25.5s15.4-1.7,22.8-12.1c7.4-10.4,4-25.5,4-25.5S251,389.9,243.6,400.3z"/>
		<path class="st0" d="M241,10.1c0,0-15.4,1.7-22.8,12.1c-7.4,10.4-4,25.5-4,25.5S229.5,46,237,35.6C244.4,25.2,241,10.1,241,10.1z"
			/>
		<path class="st0" d="M388.8,279.2c-14.8-8.1-35.5,1.1-46.1,20.6c0,0,0,0.1-0.1,0.1c-1.6,3-4,5.5-6.9,7.3c-5.9,3.7-11,9.1-14.2,16
			c-8.1,17.2-2,38.1,14.1,48.2c18.7,11.7,43.2,5.2,53.7-13.9c3.2-5.9,4.7-12.4,4.6-18.7c-0.1-3.4,0.7-6.7,2.4-9.6
			c0-0.1,0.1-0.1,0.1-0.2C407.1,309.6,403.6,287.3,388.8,279.2z"/>
		<path class="st0" d="M201.2,296.4c-0.3-1.1-0.7-2.1-1.1-3.2c-7.4-18.8-28.9-27.6-47.2-19.7c-0.1,0-0.1,0.1-0.1,0.1
			c-6.9,2.9-14.8,2.9-21.4-0.8c-13.2-7.4-29.5-8.8-44.5-2.5c-25.2,10.8-37,39.7-26.8,65c0.7,1.7,1.4,3.3,2.3,4.8c0.3,1,0.7,2,1.1,3
			c10.6,26.1,41.2,38,67.2,27l52.9-22.6c17.9-7.7,27-28.1,19.9-46.3C202.8,299.5,202.1,297.9,201.2,296.4z"/>
		<path class="st0" d="M466.5,97.5c-10.7,2.6-20.9,5.5-28.7,7.9c-5.2-6.4-12.1-14.6-19.6-22.7l11.3-32.5l-44.3,2.7
			c-2.8-1.7-5.4-3-7.8-3.7c-5.9-1.8-11.8-2.3-17.6-1.7c-1,0.1-2.1,0.3-3.1,0.4c-17.5,2.3-43.5,10.3-48.6,27.1
			c-4.4,14.6,10.2,33.1,20.7,44.8c0.9,1,1.7,1.9,2.6,2.8c5.2,5.7,12,10.1,19.8,12.4c5.3,1.6,13.1,1.6,22,0.6l22.4,19.9l8.9-25.8
			c10.5-2.6,20.5-5.4,28.2-7.8c5.2,6.3,12,14.5,19.5,22.6L466.5,97.5z"/>
	</g>
	<g>
		<g>
			<path class="st1" d="M134.6,80.1c-2.9-1.6-6.3-1.2-8.8,0.6l1.5-2.8c2.2-4,0.7-9.1-3.4-11.2l0,0c-4-2.2-9.1-0.7-11.2,3.4l-0.7,1.3
				l-0.3-0.4c-2.8-3.6-8-4.2-11.6-1.4c-3.6,2.8-4.2,8-1.4,11.6l0.3,0.4l-1.4,0.4c-4.4,1.2-7.1,5.7-5.9,10.1l0,0
				c1.2,4.4,5.7,7.1,10.1,5.9L105,97c-2.3,2-3.5,5.2-2.6,8.4c1.2,4.4,5.7,7.1,10.1,5.9l12.9-3.4c1.4-0.4,2.6-1,3.5-1.9
				c1.1-0.7,2.1-1.7,2.7-3l6.3-11.7C140.2,87.3,138.7,82.3,134.6,80.1L134.6,80.1z"/>
			<line class="st2" x1="103.8" y1="74" x2="128.5" y2="105.5"/>
			<polyline class="st2" points="121.5,70.8 114,87.1 96.5,90.5 			"/>
			<polyline class="st2" points="132,84.2 124.5,100.4 107,103.9 			"/>
		</g>
		<g>
			<path class="st3" d="M158.2,107.3l24.9,50.6c2,4,0.9,8.9-2.6,11.6c-0.9,0.7-1.9,1.2-3,1.6c-3,1-6.4,0.4-9-1.7L125,133
				c-7.9-6.6-9.9-18-4.7-26.9c0.8-1.3,1.7-2.5,2.7-3.6c0.8-0.8,1.6-1.6,2.4-2.3c2-1.6,4.2-2.8,6.7-3.5l0.7-0.2
				C142.8,93.3,153.6,97.9,158.2,107.3z"/>
			<path class="st4" d="M153,111.4l24.9,50.6c1.5,3,1.2,6.4-0.4,9.1c-3,1-6.4,0.4-9-1.7L125,133c-7.9-6.6-9.9-18-4.7-26.9
				c0.8-1.3,1.7-2.5,2.7-3.6c1.2-0.7,2.5-1.2,3.9-1.7l0.7-0.2C137.6,97.4,148.4,102,153,111.4z"/>
			<g>
				<line class="st5" x1="135.4" y1="140.3" x2="147" y2="131.2"/>
				<line class="st5" x1="122.1" y1="128.4" x2="139" y2="115.2"/>
				<line class="st5" x1="153" y1="154.8" x2="160.6" y2="148.8"/>
			</g>
		</g>
	</g>
	<g>
		<path class="st6" d="M21.4,205.1C7.5,200.9,0,184.8,0,184.8l50.5,15.4C50.5,200.2,35.4,209.4,21.4,205.1z"/>
		<path class="st7" d="M50.5,200.2L0,184.8c0,0,15.2-9.2,29.1-4.9C43,184.1,50.5,200.2,50.5,200.2z"/>
	</g>
	<g>
		<path class="st6" d="M250.1,212.1c-11.8-15.2-7.7-38.2-7.7-38.2l42.8,55C285.3,228.9,262,227.3,250.1,212.1z"/>
		<path class="st7" d="M285.3,228.9l-42.8-55c0,0,23.3,1.6,35.1,16.8C289.4,205.9,285.3,228.9,285.3,228.9z"/>
	</g>
	<g>
		<path class="st6" d="M464.6,237.2c-17.9,2.3-34.5-12-34.5-12l64.8-8.4C494.9,216.8,482.5,234.9,464.6,237.2z"/>
		<path class="st7" d="M494.9,216.8l-64.8,8.4c0,0,12.4-18.1,30.3-20.4C478.3,202.5,494.9,216.8,494.9,216.8z"/>
	</g>
	<g>
		<path class="st6" d="M257.5,403.5c-7.4,10.4-22.8,12.1-22.8,12.1l26.8-37.6C261.5,378.1,264.9,393.2,257.5,403.5z"/>
		<path class="st7" d="M261.5,378.1l-26.8,37.6c0,0-3.4-15.1,4-25.5C246.1,379.8,261.5,378.1,261.5,378.1z"/>
	</g>
	<g>
		<path class="st6" d="M232.1,25.5c-7.4,10.4-22.8,12.1-22.8,12.1L236.1,0C236.1,0,239.5,15.1,232.1,25.5z"/>
		<path class="st7" d="M236.1,0l-26.8,37.6c0,0-3.4-15.1,4-25.5C220.7,1.7,236.1,0,236.1,0z"/>
	</g>
	<g>
		<path class="st8" d="M389.1,328.7c-0.1-3.4,0.7-6.7,2.4-9.6c0-0.1,0.1-0.1,0.1-0.2c10.6-19.4,7.2-41.7-7.6-49.8
			c-14.8-8.1-35.5,1.1-46.1,20.6c0,0,0,0.1-0.1,0.1c-1.6,3-4,5.5-6.9,7.3c-5.9,3.7-11,9.1-14.2,16c-8.1,17.2-2,38.1,14.1,48.2
			c18.7,11.7,43.2,5.2,53.7-13.9C387.7,341.4,389.2,335,389.1,328.7z"/>
		<path class="st6" d="M384.4,326.7c0-2.9,0.6-5.6,2-8.1c0-0.1,0.1-0.1,0.1-0.2c9-16.4,6.1-35.3-6.5-42.1c-12.6-6.8-30,1-39,17.4
			c0,0,0,0.1,0,0.1c-1.4,2.6-3.4,4.7-5.9,6.2c-5,3.1-9.3,7.7-12,13.6c-6.9,14.5-1.7,32.2,12,40.8c15.9,9.9,36.6,4.4,45.4-11.8
			C383.2,337.5,384.4,332.1,384.4,326.7z"/>
		<path class="st9" d="M344.5,341.2c-5.1-2.8-7.7-8.7-7.2-15c0.2-2.7,1-5.5,2.5-8.2c4.8-8.8,14.7-12.6,22.1-8.6
			c3.8,2.1,6.1,5.7,6.9,10c0.8,4.1,0.1,8.8-2.3,13.1C361.8,341.3,351.9,345.2,344.5,341.2z"/>
		<path class="st10" d="M344.3,336.2c-3.8-2.1-6.1-5.7-6.9-10c0.2-2.7,1-5.5,2.5-8.2c4.8-8.8,14.7-12.6,22.1-8.6
			c3.8,2.1,6.1,5.7,6.9,10c-0.2,2.7-1,5.5-2.5,8.2C361.6,336.4,351.7,340.2,344.3,336.2z"/>
	</g>
	<g>
		<g>
			<path class="st11" d="M198.6,291c7.1,18.1-2,38.6-19.9,46.3l-52.9,22.6c-25.9,11.1-56.6-0.8-67.2-27c-10.2-25.3,1.6-54.2,26.8-65
				c15-6.4,31.3-5,44.5,2.5c6.6,3.7,14.4,3.8,21.4,0.8c0.1,0,0.1-0.1,0.1-0.1C169.8,263.4,191.2,272.3,198.6,291z"/>
			<path class="st12" d="M195.2,283.1c7.1,18.1-2,38.6-19.9,46.3l-52.9,22.7c-25.9,11.1-56.6-0.8-67.2-27
				c-10.2-25.3,1.6-54.2,26.8-65c15-6.4,31.3-5,44.5,2.5c6.6,3.7,14.4,3.8,21.4,0.8c0.1,0,0.1-0.1,0.1-0.1
				C166.4,255.5,187.8,264.4,195.2,283.1z"/>
			<path class="st13" d="M188.6,284.5c6.5,16.5-1.8,35.1-18.1,42l-48.1,20.6c-23.5,10.1-51.4-0.8-61.1-24.4
				c-9.3-23,1.5-49.2,24.4-59c13.6-5.8,28.4-4.5,40.4,2.2c6,3.4,13.1,3.4,19.4,0.8c0.1,0,0.1,0,0.1-0.1
				C162.4,259.4,181.9,267.4,188.6,284.5z"/>
			<g>
				<ellipse class="st12" cx="92.6" cy="299.9" rx="12.8" ry="12.8"/>
				<path class="st12" d="M105,287.8c-0.8-1.9,0.1-4.1,2-4.8c1.9-0.8,4.1,0.1,4.8,2s-0.1,4.1-2,4.8S105.8,289.7,105,287.8z"/>
			</g>
			<g>
				<g>
					<defs>
						<path id="SVGID_1_" d="M188.6,284.5c6.5,16.5-1.8,35.1-18.1,42l-48.1,20.6c-23.5,10.1-51.4-0.8-61.1-24.4
							c-9.3-23,1.5-49.2,24.4-59c13.6-5.8,28.4-4.5,40.4,2.2c6,3.4,13.1,3.4,19.4,0.8c0.1,0,0.1,0,0.1-0.1
							C162.4,259.4,181.9,267.4,188.6,284.5z"/>
					</defs>
					<clipPath id="SVGID_2_">
						<use xlink:href="#SVGID_1_"  style="overflow:visible;"/>
					</clipPath>
					<g class="st14">
						<g>
							<path class="st11" d="M101.8,254.5c-8,1.8-15.3,6.3-20.7,12.3c-5.5,6-9.5,13.3-12,21c-2.5,7.7-3.7,15.8-3.3,23.9
								c0.5,8.1,2.9,16,7.3,22.7c2.2,3.4,4.8,6.4,7.8,9s6.5,4.6,10.2,6c7.5,2.8,15.8,3.1,23.7,2c4-0.6,7.9-1.5,11.6-2.9
								c3.7-1.4,7.4-3.2,10.6-5.5c1.7-1.1,3.2-2.4,4.6-3.7s2.8-2.8,4-4.3c2.5-3.2,4.3-6.7,5.6-10.4c0.4-0.9,0.6-1.9,0.8-2.8
								c0.2-1,0.5-1.9,0.6-2.9c0.4-2,0.5-3.9,0.6-5.9c0.1-4-0.5-7.9-1.4-11.8c-1.8-7.8-4.7-15.5-6.5-23.7c-0.5-2-0.8-4.1-1-6.2
								c-0.1-2.1,0-4.3,0.7-6.5c0.7-2.1,2-4.1,3.7-5.5c1.7-1.5,3.7-2.5,5.8-3.1c2.1-0.6,4.3-0.8,6.5-0.5c2.2,0.3,4.3,1,6.2,2.1
								c1.9,1.1,3.6,2.5,5,4.1c1.4,1.6,2.6,3.4,3.6,5.3c2,3.8,2.8,8.1,3.1,12.2c0.2,4.2-0.1,8.3-0.8,12.4s-1.5,8.1-1.6,12
								c-0.1,2,0,4,0.5,5.9c0.4,1.9,1.2,3.8,2.4,5.3c4.6,6.4,14.5,8.5,21.4,4.3c3.4-2,6.1-5.4,7.6-9.2c1.5-3.8,1.9-8,0.8-12
								c1.1,3.9,0.9,8.3-0.5,12.1c-1.4,3.9-4,7.4-7.6,9.6c-3.6,2.2-8,2.9-12.1,2.1s-8.1-2.9-10.6-6.3c-1.3-1.7-2.2-3.7-2.7-5.7
								c-0.5-2-0.6-4.2-0.6-6.3c0.1-4.2,0.9-8.3,1.5-12.3c0.6-4,0.8-8.1,0.6-12c-0.3-4-1.2-7.9-3-11.4c-0.9-1.8-2-3.4-3.4-4.8
								c-1.3-1.4-2.8-2.7-4.5-3.6c-1.7-1-3.5-1.6-5.4-1.8c-1.9-0.2-3.9-0.1-5.7,0.5c-1.8,0.6-3.5,1.4-5,2.7c-1.4,1.3-2.5,2.8-3,4.6
								s-0.7,3.7-0.6,5.6c0.1,2,0.5,3.9,1,5.9c1.8,7.8,4.8,15.5,6.7,23.6c1,4,1.6,8.3,1.5,12.5c-0.1,2.1-0.1,4.2-0.6,6.3
								c-0.1,1.1-0.4,2.1-0.6,3.1l-0.4,1.5c-0.1,0.5-0.3,1.1-0.5,1.5c-1.4,4-3.5,7.8-6.1,11.1c-1.3,1.7-2.7,3.2-4.3,4.6
								c-1.5,1.4-3.2,2.7-4.9,3.9c-3.4,2.4-7.2,4.3-11.1,5.7c-3.9,1.4-8,2.5-12.1,3c-4.1,0.6-8.3,0.8-12.5,0.4
								c-4.2-0.3-8.3-1.1-12.3-2.7c-3.9-1.5-7.6-3.6-10.9-6.4c-3.2-2.7-5.9-6-8.1-9.6c-4.4-7.1-6.9-15.3-7.2-23.7
								c-0.4-8.3,1-16.6,3.7-24.4c2.7-7.8,6.9-15.1,12.7-21c1.4-1.5,2.9-2.9,4.6-4.1c1.6-1.3,3.3-2.5,5.1-3.4
								C93.8,256.7,97.8,255.3,101.8,254.5z"/>
						</g>
						<g>
							<path class="st11" d="M108.1,250.9c4.3,2.3,8.3,5.3,11.7,9c3.4,3.6,6.2,7.8,8.3,12.3c4.2,9,5.3,19.5,3.2,29.3
								c-1.1,4.9-2.9,9.7-5.5,14c-2.5,4.3-5.4,8.3-6.7,12.7c-0.6,2.2-0.8,4.6-0.4,6.7c0.4,2.2,1.3,4.3,2.9,5.7c1.6,1.4,3.8,2,6,1.8
								s4.3-1,6.1-2.3s3.2-3.2,4.3-5.2c1.1-2,2-4.3,2.6-6.6c1.3-4.6,1.8-9.5,1.8-14.2l-0.1-3.6l-0.3-3.6c0-0.6-0.1-1.2-0.2-1.8
								l-0.2-1.8l-0.2-1.8l-0.3-1.8c-0.8-4.8-1.9-9.6-3.1-14.4c-2.3-9.5-5-19-6.4-28.9c-0.4-2.5-0.6-4.9-0.6-7.4
								c0-2.5,0.2-5,0.8-7.4c0.6-2.4,1.8-4.7,3.4-6.6c1.6-1.9,3.7-3.4,6.1-4.1c-2.3,0.8-4.3,2.4-5.8,4.3s-2.5,4.2-3,6.5
								c-0.6,2.4-0.6,4.8-0.6,7.2c0.1,2.5,0.5,4.8,0.9,7.2c0.8,4.8,2,9.6,3.2,14.3l3.9,14.2c0.6,2.4,1.3,4.8,1.8,7.1
								c0.6,2.4,1.1,4.8,1.5,7.3l0.4,1.8l0.3,1.8l0.3,1.8c0.1,0.6,0.2,1.3,0.2,1.8l0.4,3.7l0.1,3.8c0,5-0.6,10-1.8,14.9
								c-0.6,2.5-1.5,4.8-2.8,7.1c-1.3,2.2-2.9,4.4-5,6c-2.2,1.6-4.8,2.6-7.5,2.8c-1.3,0.1-2.7-0.1-4.1-0.4c-1.3-0.4-2.6-1.1-3.6-2
								c-2.2-1.8-3.4-4.6-3.8-7.1c-0.4-2.7-0.2-5.3,0.6-7.8c0.8-2.5,2-4.8,3.2-6.9c1.3-2.2,2.7-4.2,3.9-6.2c1.3-2,2.3-4.2,3.2-6.4
								c0.9-2.2,1.7-4.5,2.2-6.9c2.2-9.4,1.5-19.5-2.3-28.4C123.3,263.7,116.5,256,108.1,250.9z"/>
						</g>
						<g>
							<path class="st11" d="M115.4,351.8c-6.3-1.1-12.4-4.1-17.2-8.7c-1.2-1.1-2.3-2.3-3.4-3.6c-1.1-1.3-2-2.8-2.5-4.6
								c-0.6-1.8-0.5-3.8,0.4-5.5c0.4-0.9,1.1-1.8,1.9-2.3c0.8-0.6,1.9-0.9,2.9-1.1c2-0.1,3.9,0.6,5.3,1.6c1.5,1.1,2.6,2.5,3.5,3.9
								c0.9,1.4,1.7,2.7,2.6,3.9c0.9,1.3,1.9,2.5,2.9,3.6c4.3,4.5,9.7,7.8,15.8,9.8c-6.4-0.8-12.5-3.9-17.3-8.3
								c-1.2-1.1-2.3-2.3-3.4-3.6c-1.1-1.3-1.9-2.7-2.8-3.9c-0.9-1.3-1.8-2.4-2.9-3.2c-1.1-0.8-2.5-1.2-3.6-1.1
								c-1.2,0.1-2.2,0.8-2.7,1.9c-0.3,0.6-0.4,1.2-0.5,1.8c-0.1,0.6,0.1,1.3,0.2,2c0.4,1.3,1.1,2.6,2,3.9c0.9,1.2,1.9,2.5,2.9,3.6
								C103.9,346.2,109.3,349.7,115.4,351.8z"/>
						</g>
					</g>
				</g>
			</g>
		</g>
	</g>
	<g>
		<g>
			<g>
				<g>
					<polygon class="st15" points="366.8,43.6 424.6,40 410,82.1 					"/>
				</g>
				<g>
					<polygon class="st15" points="347.5,106.9 405.2,103.4 390.7,145.4 					"/>
				</g>
				<g>
					<path class="st15" d="M418.3,99.9c0,0,20.5-7.1,43.3-12.6l-14.4,47.1C431.4,117.2,418.3,99.9,418.3,99.9z"/>
				</g>
				<g>
					<g>
						<path class="st16" d="M442.3,107.2c0,0-72.2,24.9-95.9,17.7c-7.9-2.4-14.6-6.7-19.8-12.4c-0.9-0.9-1.7-1.9-2.6-2.8
							c-10.5-11.7-25.1-30.2-20.7-44.8c5.1-16.8,31-24.8,48.6-27.1c1.1-0.1,2.1-0.3,3.1-0.4c5.8-0.6,11.7-0.1,17.6,1.7
							C396.2,46.3,442.3,107.2,442.3,107.2z"/>
					</g>
					<g>
						<g>
							<path class="st15" d="M369.7,71.7l-0.8-0.9c4.6-4.5,6.6-11.6,5-17.9l1.2-0.3C376.8,59.3,374.7,67,369.7,71.7z"/>
						</g>
						<g>
							<path class="st15" d="M361.3,99.3l-0.8-0.9c4.6-4.4,6.6-11.6,5-17.9l1.2-0.3C368.4,86.9,366.3,94.6,361.3,99.3z"/>
						</g>
						<g>
							<path class="st15" d="M376,91l-0.8-0.9c4.6-4.4,6.6-11.6,5-17.9l1.2-0.3C383.1,78.6,381,86.3,376,91z"/>
						</g>
						<g>
							<path class="st15" d="M388.7,84.3l-0.8-0.9c4.6-4.5,6.6-11.6,5-17.9l1.2-0.3C395.8,71.9,393.6,79.5,388.7,84.3z"/>
						</g>
						<g>
							<path class="st15" d="M394.9,100.5l-0.8-0.9c4.6-4.4,6.6-11.6,5-17.9l1.2-0.3C402,88.1,399.8,95.8,394.9,100.5z"/>
						</g>
						<g>
							<path class="st15" d="M408.7,92.4l-0.8-0.9c3.2-3.1,4.6-7.9,3.4-12.2l1.2-0.3C413.7,83.8,412.2,89,408.7,92.4z"/>
						</g>
						<g>
							<path class="st15" d="M414.5,105.3l-0.8-0.9c3.2-3.1,4.6-7.9,3.4-12.2l1.2-0.3C419.5,96.6,418.1,101.9,414.5,105.3z"/>
						</g>
						<g>
							<path class="st15" d="M403,111.2l-0.8-0.9c3.2-3.1,4.6-7.9,3.4-12.2l1.2-0.3C408,102.5,406.5,107.8,403,111.2z"/>
						</g>
						<g>
							<path class="st15" d="M381.1,110.6l-0.8-0.9c4.6-4.5,6.6-11.6,5-17.9l1.2-0.3C388.1,98.2,386,105.9,381.1,110.6z"/>
						</g>
						<g>
							<path class="st15" d="M368.6,116.8l-0.8-0.9c4.6-4.4,6.6-11.6,5-17.9l1.2-0.3C375.6,104.4,373.5,112.1,368.6,116.8z"/>
						</g>
						<g>
							<path class="st15" d="M353.5,121.2l-0.8-0.9c4.6-4.5,6.6-11.6,5-17.9l1.2-0.3C360.6,108.8,358.4,116.5,353.5,121.2z"/>
						</g>
					</g>
				</g>
				<g>
					<g>
						<path class="st15" d="M348.5,72.2c-5.3,17.3-14.8,31-24.6,37.4c-10.5-11.7-25.1-30.2-20.7-44.8c5.1-16.8,31-24.8,48.6-27.1
							C353.3,47.5,352.3,59.7,348.5,72.2z"/>
					</g>
					<g>
						<path class="st17" d="M325.3,61.5c0.9-3,4-4.6,7-3.8c3,0.9,4.6,4,3.8,7c-0.9,3-4,4.6-7,3.8C326.1,67.6,324.4,64.5,325.3,61.5z
							"/>
					</g>
					<g>
						<path class="st18" d="M328.6,62.5c0.3-1.1,1.6-1.8,2.7-1.5c1.1,0.3,1.8,1.6,1.5,2.7c-0.3,1.1-1.6,1.8-2.7,1.5
							C328.9,64.9,328.2,63.7,328.6,62.5z"/>
					</g>
				</g>
			</g>
		</g>
	</g>
</g>
</svg>
